<svg width="446" height="796" viewBox="0 0 446 796" fill="none" xmlns="http://www.w3.org/2000/svg">
<g opacity="0.56">
<path d="M1428.91 706.54C1428.67 701.186 1426.89 696.011 1423.78 691.62L924.415 -15.3798C920.056 -21.533 913.41 -25.7248 905.934 -27.0369C898.458 -28.349 890.762 -26.6743 884.531 -22.3798L168.264 470.78C165.182 472.901 162.554 475.603 160.53 478.732C158.505 481.86 157.125 485.354 156.468 489.011C155.811 492.669 155.89 496.42 156.701 500.047C157.511 503.675 159.038 507.108 161.192 510.15L660.558 1217.15C664.916 1223.31 671.562 1227.5 679.039 1228.81C686.516 1230.12 694.213 1228.45 700.443 1224.15L1416.67 731C1420.64 728.285 1423.84 724.616 1425.99 720.337C1428.13 716.058 1429.14 711.31 1428.91 706.54ZM158.323 495.11C158.116 490.723 159.041 486.355 161.009 482.419C162.978 478.483 165.927 475.107 169.577 472.61L885.844 -20.5398C891.577 -24.4913 898.659 -26.0314 905.537 -24.8223C912.415 -23.6132 918.528 -19.7536 922.536 -14.0898L1421.9 692.91C1423.88 695.714 1425.28 698.875 1426.02 702.214C1426.76 705.553 1426.83 709.004 1426.22 712.369C1425.61 715.734 1424.34 718.948 1422.47 721.826C1420.61 724.703 1418.19 727.189 1415.36 729.14L699.089 1222.29C693.356 1226.24 686.274 1227.78 679.396 1226.57C672.518 1225.36 666.405 1221.5 662.397 1215.84L163.031 508.84C160.171 504.802 158.537 500.038 158.323 495.11Z" fill="url(#paint0_linear_468_7640)" fill-opacity="0.16"/>
<path d="M1432.72 679.18C1432.49 673.837 1430.68 668.678 1427.52 664.34L931.912 -18.66C927.58 -24.6091 921.043 -28.6165 913.732 -29.8048C906.421 -30.9931 898.933 -29.2654 892.906 -25L200.956 464.44C197.971 466.544 195.435 469.21 193.494 472.287C191.553 475.363 190.245 478.789 189.645 482.367C189.045 485.946 189.165 489.606 189.999 493.138C190.832 496.67 192.362 500.005 194.501 502.95L690.119 1185.95C694.451 1191.89 700.984 1195.9 708.291 1197.09C715.598 1198.28 723.084 1196.57 729.114 1192.31L1421.07 702.85C1424.86 700.184 1427.91 696.621 1429.95 692.485C1431.98 688.35 1432.94 683.775 1432.72 679.18ZM191.601 488C191.406 483.783 192.282 479.584 194.151 475.789C196.021 471.994 198.823 468.725 202.3 466.28L894.25 -23.18C899.784 -27.1104 906.669 -28.7042 913.391 -27.611C920.112 -26.5177 926.12 -22.8269 930.093 -17.35L1425.7 665.65C1427.66 668.356 1429.07 671.418 1429.83 674.662C1430.59 677.906 1430.7 681.266 1430.14 684.551C1429.59 687.836 1428.38 690.98 1426.6 693.803C1424.81 696.626 1422.48 699.072 1419.74 701L727.781 1190.44C722.245 1194.34 715.373 1195.92 708.665 1194.83C701.957 1193.74 695.958 1190.06 691.978 1184.61L196.37 501.61C193.474 497.631 191.816 492.9 191.601 488Z" fill="url(#paint1_linear_468_7640)" fill-opacity="0.98"/>
<path d="M1436.55 651.83C1436.32 646.497 1434.48 641.356 1431.27 637.07L939.407 -21.9302C935.103 -27.672 928.678 -31.4945 921.537 -32.5625C914.395 -33.6305 907.116 -31.8573 901.29 -27.6302L233.637 458.1C230.756 460.192 228.321 462.827 226.471 465.853C224.621 468.878 223.392 472.236 222.855 475.733C222.319 479.229 222.484 482.796 223.343 486.23C224.201 489.663 225.736 492.895 227.859 495.74L719.708 1154.74C724.011 1160.49 730.438 1164.31 737.583 1165.38C744.728 1166.45 752.01 1164.67 757.835 1160.44L1425.49 674.7C1429.09 672.084 1431.99 668.628 1433.92 664.638C1435.85 660.648 1436.75 656.249 1436.55 651.83ZM224.858 480.83C224.664 476.777 225.485 472.739 227.247 469.075C229.01 465.411 231.659 462.236 234.961 459.83L902.644 -25.8202C907.98 -29.6955 914.648 -31.3229 921.192 -30.3466C927.736 -29.3704 933.624 -25.87 937.569 -20.6102L1429.42 638.39C1431.37 640.996 1432.78 643.958 1433.57 647.105C1434.35 650.253 1434.5 653.523 1434.01 656.729C1433.52 659.935 1432.39 663.012 1430.69 665.784C1428.99 668.556 1426.75 670.967 1424.1 672.88L756.461 1158.61C751.126 1162.49 744.456 1164.12 737.91 1163.14C731.364 1162.16 725.477 1158.66 721.537 1153.39L229.687 494.39C226.741 490.459 225.058 485.741 224.858 480.85V480.83Z" fill="url(#paint2_linear_468_7640)" fill-opacity="0.16"/>
<path d="M1440.38 624.48C1440.15 619.154 1438.28 614.025 1435.01 609.79L946.915 -25.21C942.634 -30.7465 936.312 -34.3803 929.333 -35.3173C922.353 -36.2542 915.283 -34.418 909.667 -30.21L266.32 451.79C262.898 454.354 260.156 457.702 258.329 461.546C256.502 465.39 255.646 469.616 255.834 473.86C256.058 479.192 257.939 484.325 261.218 488.56L749.259 1123.53C753.542 1129.06 759.861 1132.69 766.837 1133.63C773.813 1134.57 780.881 1132.73 786.497 1128.53L1429.84 646.53C1433.27 643.975 1436.03 640.633 1437.86 636.792C1439.7 632.951 1440.56 628.726 1440.38 624.48ZM258.117 473.72C257.947 469.841 258.731 465.979 260.401 462.466C262.071 458.953 264.577 455.894 267.704 453.55L911.051 -28.45C916.184 -32.2981 922.649 -33.9747 929.029 -33.1124C935.409 -32.2502 941.183 -28.9193 945.086 -23.85L1433.2 611.16C1435.13 613.666 1436.54 616.525 1437.35 619.572C1438.16 622.619 1438.35 625.794 1437.92 628.915C1437.48 632.036 1436.43 635.042 1434.82 637.759C1433.21 640.477 1431.07 642.852 1428.53 644.75L785.184 1126.75C780.049 1130.59 773.588 1132.26 767.213 1131.4C760.838 1130.53 755.066 1127.21 751.159 1122.15L263.057 487.15C260.06 483.279 258.336 478.592 258.117 473.72Z" fill="url(#paint3_linear_468_7640)" fill-opacity="0.98"/>
<path d="M1444.22 597.13C1443.99 591.806 1442.07 586.687 1438.74 582.5L954.41 -28.5C950.165 -33.8419 943.955 -37.3018 937.139 -38.1227C930.323 -38.9435 923.456 -37.0585 918.041 -32.88L299.011 445.42C296.332 447.485 294.092 450.052 292.419 452.976C290.745 455.899 289.671 459.121 289.258 462.457C288.845 465.792 289.101 469.175 290.012 472.412C290.923 475.649 292.47 478.676 294.566 481.32L778.909 1092.32C783.152 1097.66 789.364 1101.13 796.181 1101.95C802.999 1102.76 809.866 1100.87 815.278 1096.69L1434.31 618.41C1437.55 615.898 1440.14 612.657 1441.86 608.956C1443.59 605.256 1444.39 601.201 1444.22 597.13ZM291.383 466.58C291.228 462.865 291.972 459.166 293.554 455.794C295.135 452.421 297.509 449.471 300.476 447.19L919.455 -31.11C924.391 -34.918 930.65 -36.6351 936.863 -35.8855C943.075 -35.1358 948.734 -31.9804 952.601 -27.11L1436.93 583.91C1439.99 587.714 1441.76 592.375 1441.99 597.23C1442.14 600.947 1441.4 604.646 1439.81 608.02C1438.23 611.395 1435.86 614.347 1432.89 616.63L813.854 1094.92C808.918 1098.73 802.658 1100.45 796.446 1099.7C790.234 1098.95 784.575 1095.79 780.707 1090.92L296.374 479.92C293.334 476.104 291.588 471.436 291.383 466.58Z" fill="url(#paint4_linear_468_7640)" fill-opacity="0.16"/>
<path d="M1448.07 569.78C1447.84 564.461 1445.88 559.358 1442.48 555.23L961.906 -31.77C957.694 -36.9127 951.592 -40.1915 944.941 -40.887C938.289 -41.5825 931.631 -39.638 926.426 -35.48L331.693 439.11C328.63 441.564 326.189 444.693 324.567 448.248C322.944 451.802 322.184 455.683 322.348 459.58C322.569 464.899 324.526 470.004 327.924 474.13L808.5 1061.13C812.712 1066.27 818.813 1069.55 825.465 1070.25C832.116 1070.94 838.775 1069 843.98 1064.84L1438.71 590.26C1441.78 587.806 1444.22 584.676 1445.85 581.119C1447.47 577.563 1448.23 573.68 1448.07 569.78ZM324.671 459.45C324.521 455.904 325.213 452.373 326.69 449.14C328.167 445.906 330.389 443.06 333.178 440.83L927.86 -33.75C932.598 -37.5191 938.649 -39.2792 944.693 -38.6459C950.737 -38.0126 956.283 -35.0373 960.118 -30.37L1440.7 556.63C1443.79 560.381 1445.56 565.019 1445.75 569.85C1445.91 573.401 1445.21 576.938 1443.74 580.177C1442.26 583.416 1440.03 586.266 1437.24 588.5L842.505 1063.08C837.772 1066.86 831.719 1068.62 825.672 1067.99C819.626 1067.36 814.079 1064.38 810.247 1059.71L329.672 472.71C326.585 468.947 324.816 464.294 324.631 459.45H324.671Z" fill="url(#paint5_linear_468_7640)" fill-opacity="0.98"/>
<path d="M1451.91 542.43C1451.67 537.13 1449.67 532.056 1446.22 528L969.381 -34.9999C965.186 -39.9259 959.191 -43.0069 952.706 -43.5691C946.222 -44.1313 939.777 -42.1289 934.78 -37.9999L364.353 432.74C361.878 434.777 359.833 437.277 358.337 440.098C356.841 442.919 355.923 446.005 355.636 449.179C355.348 452.352 355.698 455.551 356.663 458.59C357.629 461.63 359.192 464.451 361.262 466.89L838.1 1029.89C842.298 1034.81 848.293 1037.89 854.775 1038.45C861.258 1039.01 867.702 1037.01 872.701 1032.89L1443.13 562.11C1446.04 559.732 1448.35 556.715 1449.87 553.298C1451.39 549.882 1452.09 546.16 1451.91 542.43ZM357.878 452.32C357.715 448.938 358.351 445.565 359.735 442.468C361.118 439.372 363.212 436.637 365.849 434.48L936.265 -36.3899C940.797 -40.1136 946.632 -41.9132 952.499 -41.3962C958.365 -40.8792 963.787 -38.0875 967.583 -33.6299L1444.42 529.37C1446.3 531.584 1447.72 534.145 1448.6 536.904C1449.47 539.663 1449.79 542.567 1449.53 545.448C1449.27 548.33 1448.44 551.131 1447.08 553.692C1445.72 556.253 1443.86 558.522 1441.61 560.37L871.185 1031.24C866.648 1034.98 860.802 1036.78 854.924 1036.26C849.046 1035.74 843.614 1032.94 839.817 1028.47L362.979 465.47C359.85 461.77 358.055 457.143 357.878 452.32Z" fill="url(#paint6_linear_468_7640)" fill-opacity="0.16"/>
<path d="M1455.77 515.08C1455.54 509.76 1453.49 504.675 1449.95 500.67L976.897 -38.3299C972.739 -43.0634 966.854 -45.9718 960.533 -46.418C954.212 -46.8641 947.97 -44.8115 943.175 -40.7099L397.055 426.4C394.684 428.428 392.741 430.898 391.336 433.67C389.932 436.442 389.093 439.461 388.869 442.554C388.645 445.647 389.039 448.754 390.029 451.696C391.02 454.638 392.587 457.358 394.64 459.7L867.7 998.7C871.861 1003.43 877.746 1006.33 884.066 1006.78C890.386 1007.22 896.627 1005.17 901.422 1001.07L1447.53 534C1450.27 531.675 1452.43 528.762 1453.86 525.483C1455.29 522.204 1455.94 518.646 1455.77 515.08ZM391.115 445.19C390.966 441.971 391.559 438.76 392.849 435.801C394.139 432.842 396.092 430.212 398.56 428.11L944.67 -38.9999C949.006 -42.708 954.649 -44.5638 960.364 -44.1608C966.079 -43.7578 971.399 -41.1288 975.16 -36.8499L1448.22 502.15C1450.08 504.267 1451.49 506.725 1452.39 509.384C1453.28 512.044 1453.64 514.852 1453.44 517.648C1453.23 520.444 1452.48 523.173 1451.21 525.679C1449.94 528.185 1448.18 530.418 1446.04 532.25L899.916 999.4C895.581 1003.1 889.94 1004.95 884.229 1004.55C878.517 1004.15 873.199 1001.52 869.437 997.25L396.378 458.25C393.159 454.625 391.301 450.013 391.115 445.19Z" fill="url(#paint7_linear_468_7640)" fill-opacity="0.98"/>
<path d="M1459.62 487.73C1459.39 482.412 1457.29 477.341 1453.68 473.39L984.383 -41.6099C980.253 -46.1376 974.478 -48.86 968.324 -49.1805C962.17 -49.5011 956.138 -47.3936 951.55 -43.3199L429.737 420.11C427.468 422.123 425.622 424.56 424.307 427.28C422.991 430.001 422.231 432.951 422.069 435.963C421.908 438.975 422.349 441.989 423.366 444.832C424.384 447.674 425.958 450.291 427.999 452.53L897.3 967.53C901.432 972.058 907.209 974.781 913.365 975.102C919.521 975.422 925.554 973.314 930.143 969.24L1451.95 505.8C1454.5 503.541 1456.52 500.747 1457.84 497.621C1459.17 494.496 1459.78 491.117 1459.62 487.73ZM424.352 438.05C424.211 434.995 424.759 431.947 425.956 429.128C427.152 426.308 428.969 423.788 431.272 421.75L953.086 -41.6799C957.219 -45.3355 962.644 -47.2243 968.179 -46.9339C973.713 -46.6435 978.907 -44.1975 982.626 -40.1299L1451.99 474.91C1453.83 476.93 1455.24 479.289 1456.16 481.853C1457.07 484.416 1457.46 487.133 1457.31 489.848C1457.16 492.562 1456.47 495.22 1455.28 497.67C1454.09 500.119 1452.42 502.311 1450.37 504.12L928.567 967.56C924.431 971.231 918.993 973.129 913.446 972.841C907.898 972.552 902.692 970.099 898.967 966.02L429.666 451.02C426.423 447.441 424.544 442.854 424.352 438.05Z" fill="url(#paint8_linear_468_7640)" fill-opacity="0.16"/>
<g filter="url(#filter0_f_468_7640)">
<circle cx="600" cy="558" r="200" fill="white" fill-opacity="0.24"/>
</g>
</g>
<defs>
<filter id="filter0_f_468_7640" x="0" y="-42" width="1200" height="1200" filterUnits="userSpaceOnUse" color-interpolation-filters="sRGB">
<feFlood flood-opacity="0" result="BackgroundImageFix"/>
<feBlend mode="normal" in="SourceGraphic" in2="BackgroundImageFix" result="shape"/>
<feGaussianBlur stdDeviation="200" result="effect1_foregroundBlur_468_7640"/>
</filter>
<linearGradient id="paint0_linear_468_7640" x1="792.486" y1="-27.4731" x2="792.486" y2="1229.25" gradientUnits="userSpaceOnUse">
<stop offset="0.0625" stop-color="white"/>
<stop offset="0.416667" stop-color="#D6D7E0"/>
<stop offset="0.630208" stop-color="#DEE0E3"/>
<stop offset="0.776042" stop-color="white"/>
</linearGradient>
<linearGradient id="paint1_linear_468_7640" x1="811.011" y1="-30.1713" x2="811.011" y2="1197.46" gradientUnits="userSpaceOnUse">
<stop stop-color="#D6D7E0"/>
<stop offset="1" stop-color="white"/>
</linearGradient>
<linearGradient id="paint2_linear_468_7640" x1="829.563" y1="-32.8662" x2="829.563" y2="1165.68" gradientUnits="userSpaceOnUse">
<stop offset="0.0625" stop-color="white"/>
<stop offset="0.416667" stop-color="#D6D7E0"/>
<stop offset="0.630208" stop-color="#DEE0E3"/>
<stop offset="0.776042" stop-color="white"/>
</linearGradient>
<linearGradient id="paint3_linear_468_7640" x1="848.106" y1="-35.5566" x2="848.106" y2="1133.87" gradientUnits="userSpaceOnUse">
<stop stop-color="#D6D7E0"/>
<stop offset="1" stop-color="white"/>
</linearGradient>
<linearGradient id="paint4_linear_468_7640" x1="866.654" y1="-38.3109" x2="866.654" y2="1102.13" gradientUnits="userSpaceOnUse">
<stop offset="0.0625" stop-color="white"/>
<stop offset="0.416667" stop-color="#D6D7E0"/>
<stop offset="0.630208" stop-color="#DEE0E3"/>
<stop offset="0.776042" stop-color="white"/>
</linearGradient>
<linearGradient id="paint5_linear_468_7640" x1="885.208" y1="-41.0254" x2="885.208" y2="1070.39" gradientUnits="userSpaceOnUse">
<stop stop-color="#D6D7E0"/>
<stop offset="1" stop-color="white"/>
</linearGradient>
<linearGradient id="paint6_linear_468_7640" x1="903.737" y1="-43.6621" x2="903.737" y2="1038.54" gradientUnits="userSpaceOnUse">
<stop offset="0.0625" stop-color="white"/>
<stop offset="0.416667" stop-color="#D6D7E0"/>
<stop offset="0.630208" stop-color="#DEE0E3"/>
<stop offset="0.776042" stop-color="white"/>
</linearGradient>
<linearGradient id="paint7_linear_468_7640" x1="922.3" y1="-46.478" x2="922.3" y2="1006.84" gradientUnits="userSpaceOnUse">
<stop stop-color="#D6D7E0"/>
<stop offset="1" stop-color="white"/>
</linearGradient>
<linearGradient id="paint8_linear_468_7640" x1="940.843" y1="-49.2124" x2="940.843" y2="975.133" gradientUnits="userSpaceOnUse">
<stop offset="0.0625" stop-color="white"/>
<stop offset="0.416667" stop-color="#D6D7E0"/>
<stop offset="0.630208" stop-color="#DEE0E3"/>
<stop offset="0.776042" stop-color="white"/>
</linearGradient>
</defs>
</svg>
