<svg width="446" height="796" viewBox="0 0 446 796" fill="none" xmlns="http://www.w3.org/2000/svg">
<g opacity="0.56">
<path d="M-982.913 706.54C-982.668 701.186 -980.888 696.011 -977.781 691.62L-478.415 -15.3798C-474.056 -21.533 -467.41 -25.7248 -459.934 -27.0369C-452.458 -28.349 -444.762 -26.6743 -438.531 -22.3798L277.736 470.78C280.818 472.901 283.446 475.603 285.47 478.732C287.495 481.86 288.875 485.354 289.532 489.011C290.189 492.669 290.11 496.42 289.299 500.047C288.489 503.675 286.962 507.108 284.808 510.15L-214.558 1217.15C-218.916 1223.31 -225.562 1227.5 -233.039 1228.81C-240.516 1230.12 -248.213 1228.45 -254.443 1224.15L-970.669 731C-974.638 728.285 -977.844 724.616 -979.986 720.337C-982.128 716.058 -983.135 711.31 -982.913 706.54ZM287.677 495.11C287.884 490.723 286.959 486.355 284.991 482.419C283.022 478.483 280.073 475.107 276.423 472.61L-439.844 -20.5398C-445.577 -24.4913 -452.659 -26.0314 -459.537 -24.8223C-466.415 -23.6132 -472.528 -19.7536 -476.536 -14.0898L-975.902 692.91C-977.879 695.714 -979.278 698.875 -980.019 702.214C-980.759 705.553 -980.828 709.004 -980.22 712.369C-979.612 715.734 -978.339 718.948 -976.475 721.826C-974.611 724.703 -972.192 727.189 -969.356 729.14L-253.089 1222.29C-247.356 1226.24 -240.274 1227.78 -233.396 1226.57C-226.518 1225.36 -220.405 1221.5 -216.397 1215.84L282.969 508.84C285.829 504.802 287.463 500.038 287.677 495.11Z" fill="url(#paint0_linear_468_7664)" fill-opacity="0.16"/>
<path d="M-986.722 679.18C-986.489 673.837 -984.68 668.678 -981.52 664.34L-485.912 -18.66C-481.58 -24.6091 -475.043 -28.6165 -467.732 -29.8048C-460.421 -30.9931 -452.933 -29.2654 -446.906 -25L245.044 464.44C248.029 466.544 250.565 469.21 252.506 472.287C254.447 475.363 255.755 478.789 256.355 482.367C256.955 485.946 256.835 489.606 256.001 493.138C255.168 496.67 253.638 500.005 251.499 502.95L-244.119 1185.95C-248.451 1191.89 -254.984 1195.9 -262.291 1197.09C-269.598 1198.28 -277.084 1196.57 -283.114 1192.31L-975.074 702.85C-978.861 700.184 -981.912 696.621 -983.947 692.485C-985.982 688.35 -986.937 683.775 -986.722 679.18ZM254.399 488C254.594 483.783 253.718 479.584 251.849 475.789C249.979 471.994 247.177 468.725 243.7 466.28L-448.25 -23.18C-453.784 -27.1104 -460.669 -28.7042 -467.391 -27.611C-474.112 -26.5177 -480.12 -22.8269 -484.093 -17.35L-979.701 665.65C-981.663 668.356 -983.065 671.418 -983.827 674.662C-984.59 677.906 -984.697 681.266 -984.143 684.551C-983.589 687.836 -982.385 690.98 -980.6 693.803C-978.815 696.626 -976.484 699.072 -973.741 701L-281.781 1190.44C-276.245 1194.34 -269.373 1195.92 -262.665 1194.83C-255.957 1193.74 -249.958 1190.06 -245.978 1184.61L249.63 501.61C252.526 497.631 254.184 492.9 254.399 488Z" fill="url(#paint1_linear_468_7664)" fill-opacity="0.98"/>
<path d="M-990.551 651.83C-990.321 646.497 -988.481 641.356 -985.267 637.07L-493.407 -21.9302C-489.103 -27.672 -482.678 -31.4945 -475.537 -32.5625C-468.395 -33.6305 -461.116 -31.8573 -455.29 -27.6302L212.363 458.1C215.244 460.192 217.679 462.827 219.529 465.853C221.379 468.878 222.608 472.236 223.145 475.733C223.681 479.229 223.516 482.796 222.657 486.23C221.799 489.663 220.264 492.895 218.141 495.74L-273.708 1154.74C-278.011 1160.49 -284.438 1164.31 -291.583 1165.38C-298.728 1166.45 -306.01 1164.67 -311.835 1160.44L-979.488 674.7C-983.092 672.084 -985.988 668.628 -987.917 664.638C-989.847 660.648 -990.752 656.249 -990.551 651.83ZM221.142 480.83C221.336 476.777 220.515 472.739 218.753 469.075C216.99 465.411 214.341 462.236 211.039 459.83L-456.644 -25.8202C-461.98 -29.6955 -468.648 -31.3229 -475.192 -30.3466C-481.736 -29.3704 -487.624 -25.87 -491.569 -20.6102L-983.418 638.39C-985.368 640.996 -986.777 643.958 -987.565 647.105C-988.353 650.253 -988.505 653.523 -988.011 656.729C-987.517 659.935 -986.387 663.012 -984.687 665.784C-982.987 668.556 -980.75 670.967 -978.104 672.88L-310.461 1158.61C-305.126 1162.49 -298.456 1164.12 -291.91 1163.14C-285.364 1162.16 -279.477 1158.66 -275.537 1153.39L216.313 494.39C219.259 490.459 220.942 485.741 221.142 480.85V480.83Z" fill="url(#paint2_linear_468_7664)" fill-opacity="0.16"/>
<path d="M-994.381 624.48C-994.153 619.154 -992.277 614.025 -989.006 609.79L-500.915 -25.21C-496.634 -30.7465 -490.312 -34.3803 -483.333 -35.3173C-476.353 -36.2542 -469.283 -34.418 -463.667 -30.21L179.68 451.79C183.102 454.354 185.844 457.702 187.671 461.546C189.498 465.39 190.354 469.616 190.166 473.86C189.942 479.192 188.061 484.325 184.782 488.56L-303.259 1123.53C-307.542 1129.06 -313.861 1132.69 -320.837 1133.63C-327.813 1134.57 -334.881 1132.73 -340.497 1128.53L-983.844 646.53C-987.274 643.975 -990.026 640.633 -991.862 636.792C-993.697 632.951 -994.562 628.726 -994.381 624.48ZM187.883 473.72C188.053 469.841 187.269 465.979 185.599 462.466C183.929 458.953 181.423 455.894 178.296 453.55L-465.051 -28.45C-470.184 -32.2981 -476.649 -33.9747 -483.029 -33.1124C-489.409 -32.2502 -495.183 -28.9193 -499.086 -23.85L-987.198 611.16C-989.127 613.666 -990.536 616.525 -991.346 619.572C-992.155 622.619 -992.349 625.794 -991.915 628.915C-991.482 632.036 -990.429 635.042 -988.819 637.759C-987.208 640.477 -985.071 642.852 -982.531 644.75L-339.184 1126.75C-334.049 1130.59 -327.588 1132.26 -321.213 1131.4C-314.838 1130.53 -309.066 1127.21 -305.159 1122.15L182.943 487.15C185.94 483.279 187.664 478.592 187.883 473.72Z" fill="url(#paint3_linear_468_7664)" fill-opacity="0.98"/>
<path d="M-998.219 597.13C-997.989 591.806 -996.074 586.687 -992.743 582.5L-508.41 -28.5C-504.165 -33.8419 -497.955 -37.3018 -491.139 -38.1227C-484.323 -38.9435 -477.456 -37.0585 -472.041 -32.88L146.989 445.42C149.668 447.485 151.908 450.052 153.581 452.976C155.255 455.899 156.329 459.121 156.742 462.457C157.155 465.792 156.899 469.175 155.988 472.412C155.077 475.649 153.53 478.676 151.434 481.32L-332.909 1092.32C-337.152 1097.66 -343.364 1101.13 -350.181 1101.95C-356.999 1102.76 -363.866 1100.87 -369.278 1096.69L-988.308 618.41C-991.55 615.898 -994.139 612.657 -995.863 608.956C-997.586 605.256 -998.394 601.201 -998.219 597.13ZM154.617 466.58C154.772 462.865 154.028 459.166 152.446 455.794C150.865 452.421 148.491 449.471 145.524 447.19L-473.455 -31.11C-478.391 -34.918 -484.65 -36.6351 -490.863 -35.8855C-497.075 -35.1358 -502.734 -31.9804 -506.601 -27.11L-990.935 583.91C-993.991 587.714 -995.759 592.375 -995.986 597.23C-996.14 600.947 -995.396 604.646 -993.814 608.02C-992.233 611.395 -989.86 614.347 -986.894 616.63L-367.854 1094.92C-362.918 1098.73 -356.658 1100.45 -350.446 1099.7C-344.234 1098.95 -338.575 1095.79 -334.707 1090.92L149.626 479.92C152.666 476.104 154.412 471.436 154.617 466.58Z" fill="url(#paint4_linear_468_7664)" fill-opacity="0.16"/>
<path d="M-1002.07 569.78C-1001.84 564.461 -999.878 559.358 -996.481 555.23L-515.906 -31.77C-511.694 -36.9127 -505.592 -40.1915 -498.941 -40.887C-492.289 -41.5825 -485.631 -39.638 -480.426 -35.48L114.307 439.11C117.37 441.564 119.811 444.693 121.433 448.248C123.056 451.802 123.816 455.683 123.652 459.58C123.431 464.899 121.474 470.004 118.076 474.13L-362.5 1061.13C-366.712 1066.27 -372.813 1069.55 -379.465 1070.25C-386.116 1070.94 -392.775 1069 -397.98 1064.84L-992.713 590.26C-995.779 587.806 -998.222 584.676 -999.847 581.119C-1001.47 577.563 -1002.23 573.68 -1002.07 569.78ZM121.329 459.45C121.479 455.904 120.787 452.373 119.31 449.14C117.833 445.906 115.611 443.06 112.822 440.83L-481.86 -33.75C-486.598 -37.5191 -492.649 -39.2792 -498.693 -38.6459C-504.737 -38.0126 -510.283 -35.0373 -514.118 -30.37L-994.703 556.63C-997.785 560.381 -999.558 565.019 -999.755 569.85C-999.906 573.401 -999.215 576.938 -997.736 580.177C-996.257 583.416 -994.031 586.266 -991.238 588.5L-396.505 1063.08C-391.772 1066.86 -385.719 1068.62 -379.672 1067.99C-373.626 1067.36 -368.079 1064.38 -364.247 1059.71L116.328 472.71C119.415 468.947 121.184 464.294 121.369 459.45H121.329Z" fill="url(#paint5_linear_468_7664)" fill-opacity="0.98"/>
<path d="M-1005.91 542.43C-1005.67 537.13 -1003.67 532.056 -1000.22 528L-523.381 -34.9999C-519.186 -39.9259 -513.191 -43.0069 -506.706 -43.5691C-500.222 -44.1313 -493.777 -42.1289 -488.78 -37.9999L81.6466 432.74C84.1222 434.777 86.1669 437.277 87.663 440.098C89.1591 442.919 90.0771 446.005 90.3644 449.179C90.6517 452.352 90.3025 455.551 89.3369 458.59C88.3713 461.63 86.8085 464.451 84.738 466.89L-392.1 1029.89C-396.298 1034.81 -402.293 1037.89 -408.775 1038.45C-415.258 1039.01 -421.702 1037.01 -426.701 1032.89L-997.127 562.11C-1000.04 559.732 -1002.35 556.715 -1003.87 553.298C-1005.39 549.882 -1006.09 546.16 -1005.91 542.43ZM88.1223 452.32C88.2847 448.938 87.6488 445.565 86.2653 442.468C84.8817 439.372 82.7885 436.637 80.1515 434.48L-490.265 -36.3899C-494.797 -40.1136 -500.632 -41.9132 -506.499 -41.3962C-512.365 -40.8792 -517.787 -38.0875 -521.583 -33.6299L-998.421 529.37C-1000.3 531.584 -1001.72 534.145 -1002.6 536.904C-1003.47 539.663 -1003.79 542.567 -1003.53 545.448C-1003.27 548.33 -1002.44 551.131 -1001.08 553.692C-999.718 556.253 -997.861 558.522 -995.612 560.37L-425.185 1031.24C-420.648 1034.98 -414.802 1036.78 -408.924 1036.26C-403.046 1035.74 -397.614 1032.94 -393.817 1028.47L83.0205 465.47C86.1497 461.77 87.9448 457.143 88.1223 452.32Z" fill="url(#paint6_linear_468_7664)" fill-opacity="0.16"/>
<path d="M-1009.77 515.08C-1009.54 509.76 -1007.49 504.675 -1003.95 500.67L-530.897 -38.3299C-526.739 -43.0634 -520.854 -45.9718 -514.533 -46.418C-508.212 -46.8641 -501.97 -44.8115 -497.175 -40.7099L48.9452 426.4C51.3158 428.428 53.259 430.898 54.6637 433.67C56.0684 436.442 56.9069 439.461 57.1311 442.554C57.3553 445.647 56.9612 448.754 55.9708 451.696C54.9805 454.638 53.4135 457.358 51.3596 459.7L-421.7 998.7C-425.861 1003.43 -431.746 1006.33 -438.066 1006.78C-444.386 1007.22 -450.627 1005.17 -455.422 1001.07L-1001.53 534C-1004.27 531.675 -1006.43 528.762 -1007.86 525.483C-1009.29 522.204 -1009.94 518.646 -1009.77 515.08ZM54.8854 445.19C55.0341 441.971 54.4409 438.76 53.151 435.801C51.8611 432.842 49.9082 430.212 47.4399 428.11L-498.67 -38.9999C-503.006 -42.708 -508.649 -44.5638 -514.364 -44.1608C-520.079 -43.7578 -525.399 -41.1288 -529.16 -36.8499L-1002.22 502.15C-1004.08 504.267 -1005.49 506.725 -1006.39 509.384C-1007.28 512.044 -1007.64 514.852 -1007.44 517.648C-1007.23 520.444 -1006.48 523.173 -1005.21 525.679C-1003.94 528.185 -1002.18 530.418 -1000.04 532.25L-453.916 999.4C-449.581 1003.1 -443.94 1004.95 -438.229 1004.55C-432.517 1004.15 -427.199 1001.52 -423.437 997.25L49.6221 458.25C52.8406 454.625 54.6992 450.013 54.8854 445.19Z" fill="url(#paint7_linear_468_7664)" fill-opacity="0.98"/>
<path d="M-1013.62 487.73C-1013.39 482.412 -1011.29 477.341 -1007.68 473.39L-538.383 -41.6099C-534.253 -46.1376 -528.478 -48.86 -522.324 -49.1805C-516.17 -49.5011 -510.138 -47.3936 -505.55 -43.3199L16.2634 420.11C18.5323 422.123 20.3776 424.56 21.6932 427.28C23.009 430.001 23.7694 432.951 23.9308 435.963C24.0923 438.975 23.6515 441.989 22.634 444.832C21.6165 447.674 20.042 450.291 18.0011 452.53L-451.3 967.53C-455.432 972.058 -461.209 974.781 -467.365 975.102C-473.521 975.422 -479.554 973.314 -484.143 969.24L-1005.95 505.8C-1008.5 503.541 -1010.52 500.747 -1011.84 497.621C-1013.17 494.496 -1013.78 491.117 -1013.62 487.73ZM21.6481 438.05C21.7892 434.995 21.2415 431.947 20.0444 429.128C18.8475 426.308 17.0314 423.788 14.7278 421.75L-507.086 -41.6799C-511.219 -45.3355 -516.644 -47.2243 -522.179 -46.9339C-527.713 -46.6435 -532.907 -44.1975 -536.626 -40.1299L-1005.99 474.91C-1007.83 476.93 -1009.24 479.289 -1010.16 481.853C-1011.07 484.416 -1011.46 487.133 -1011.31 489.848C-1011.16 492.562 -1010.47 495.22 -1009.28 497.67C-1008.09 500.119 -1006.42 502.311 -1004.37 504.12L-482.567 967.56C-478.431 971.231 -472.993 973.129 -467.446 972.841C-461.898 972.552 -456.692 970.099 -452.967 966.02L16.3341 451.02C19.5767 447.441 21.4559 442.854 21.6481 438.05Z" fill="url(#paint8_linear_468_7664)" fill-opacity="0.16"/>
<g filter="url(#filter0_f_468_7664)">
<circle r="200" transform="matrix(-1 0 0 1 -154 558)" fill="white" fill-opacity="0.24"/>
</g>
</g>
<defs>
<filter id="filter0_f_468_7664" x="-754" y="-42" width="1200" height="1200" filterUnits="userSpaceOnUse" color-interpolation-filters="sRGB">
<feFlood flood-opacity="0" result="BackgroundImageFix"/>
<feBlend mode="normal" in="SourceGraphic" in2="BackgroundImageFix" result="shape"/>
<feGaussianBlur stdDeviation="200" result="effect1_foregroundBlur_468_7664"/>
</filter>
<linearGradient id="paint0_linear_468_7664" x1="-346.486" y1="-27.4731" x2="-346.486" y2="1229.25" gradientUnits="userSpaceOnUse">
<stop offset="0.0625" stop-color="white"/>
<stop offset="0.416667" stop-color="#D6D7E0"/>
<stop offset="0.630208" stop-color="#DEE0E3"/>
<stop offset="0.776042" stop-color="white"/>
</linearGradient>
<linearGradient id="paint1_linear_468_7664" x1="-365.011" y1="-30.1713" x2="-365.011" y2="1197.46" gradientUnits="userSpaceOnUse">
<stop stop-color="#D6D7E0"/>
<stop offset="1" stop-color="white"/>
</linearGradient>
<linearGradient id="paint2_linear_468_7664" x1="-383.563" y1="-32.8662" x2="-383.563" y2="1165.68" gradientUnits="userSpaceOnUse">
<stop offset="0.0625" stop-color="white"/>
<stop offset="0.416667" stop-color="#D6D7E0"/>
<stop offset="0.630208" stop-color="#DEE0E3"/>
<stop offset="0.776042" stop-color="white"/>
</linearGradient>
<linearGradient id="paint3_linear_468_7664" x1="-402.106" y1="-35.5566" x2="-402.106" y2="1133.87" gradientUnits="userSpaceOnUse">
<stop stop-color="#D6D7E0"/>
<stop offset="1" stop-color="white"/>
</linearGradient>
<linearGradient id="paint4_linear_468_7664" x1="-420.654" y1="-38.3109" x2="-420.654" y2="1102.13" gradientUnits="userSpaceOnUse">
<stop offset="0.0625" stop-color="white"/>
<stop offset="0.416667" stop-color="#D6D7E0"/>
<stop offset="0.630208" stop-color="#DEE0E3"/>
<stop offset="0.776042" stop-color="white"/>
</linearGradient>
<linearGradient id="paint5_linear_468_7664" x1="-439.208" y1="-41.0254" x2="-439.208" y2="1070.39" gradientUnits="userSpaceOnUse">
<stop stop-color="#D6D7E0"/>
<stop offset="1" stop-color="white"/>
</linearGradient>
<linearGradient id="paint6_linear_468_7664" x1="-457.737" y1="-43.6621" x2="-457.737" y2="1038.54" gradientUnits="userSpaceOnUse">
<stop offset="0.0625" stop-color="white"/>
<stop offset="0.416667" stop-color="#D6D7E0"/>
<stop offset="0.630208" stop-color="#DEE0E3"/>
<stop offset="0.776042" stop-color="white"/>
</linearGradient>
<linearGradient id="paint7_linear_468_7664" x1="-476.3" y1="-46.478" x2="-476.3" y2="1006.84" gradientUnits="userSpaceOnUse">
<stop stop-color="#D6D7E0"/>
<stop offset="1" stop-color="white"/>
</linearGradient>
<linearGradient id="paint8_linear_468_7664" x1="-494.843" y1="-49.2124" x2="-494.843" y2="975.133" gradientUnits="userSpaceOnUse">
<stop offset="0.0625" stop-color="white"/>
<stop offset="0.416667" stop-color="#D6D7E0"/>
<stop offset="0.630208" stop-color="#DEE0E3"/>
<stop offset="0.776042" stop-color="white"/>
</linearGradient>
</defs>
</svg>
