<svg width="48" height="49" viewBox="0 0 48 49" fill="none" xmlns="http://www.w3.org/2000/svg">
<path d="M39.792 19.804C39.952 20.124 40.016 20.476 39.984 20.86C39.952 21.244 39.824 21.58 39.6 21.868L23.616 43.9C23.2 44.444 22.656 44.716 21.984 44.716C21.76 44.716 21.552 44.684 21.36 44.62C20.944 44.492 20.608 44.236 20.352 43.852C20.128 43.5 20.016 43.116 20.016 42.7V30.7H9.984C9.6 30.668 9.232 30.54 8.88 30.316C8.56 30.092 8.336 29.804 8.208 29.452C8.08 29.1 8.032 28.748 8.064 28.396C8.096 28.044 8.208 27.724 8.4 27.436L24.384 5.404C24.64 5.052 24.976 4.812 25.392 4.684C25.808 4.556 26.224 4.572 26.64 4.732C27.056 4.86 27.392 5.116 27.648 5.5C27.904 5.852 28.016 6.252 27.984 6.7V18.7H38.016C38.4 18.7 38.752 18.812 39.072 19.036C39.392 19.228 39.632 19.484 39.792 19.804ZM24 36.556L33.984 22.684H26.016C25.472 22.684 24.992 22.492 24.576 22.108C24.192 21.724 24 21.26 24 20.716V12.844L14.016 26.716H21.984C22.528 26.716 22.992 26.908 23.376 27.292C23.792 27.676 24 28.14 24 28.684V36.556Z" fill="#443FDE"/>
</svg>
