<svg width="48" height="48" viewBox="0 0 48 48" fill="none" xmlns="http://www.w3.org/2000/svg">
<path d="M42 12.2C42.544 12.2 43.008 12.408 43.392 12.824C43.808 13.208 44.016 13.672 44.016 14.216V22.184C44.016 23.048 43.84 23.864 43.488 24.632C43.136 25.4 42.64 26.072 42 26.648V38.216C42 39.304 41.728 40.296 41.184 41.192C40.64 42.12 39.904 42.856 38.976 43.4C38.08 43.944 37.088 44.216 36 44.216H12C10.912 44.216 9.904 43.944 8.976 43.4C8.08 42.856 7.36 42.12 6.816 41.192C6.272 40.296 6 39.304 6 38.216V26.648C5.36 26.072 4.864 25.4 4.512 24.632C4.16 23.864 3.984 23.048 3.984 22.184V14.216C3.984 13.672 4.176 13.208 4.56 12.824C4.976 12.408 5.456 12.2 6 12.2H14.016V10.184C14.016 9.096 14.288 8.104 14.832 7.208C15.376 6.28 16.096 5.544 16.992 5C17.92 4.456 18.928 4.184 20.016 4.184H27.984C29.072 4.184 30.064 4.456 30.96 5C31.888 5.544 32.624 6.28 33.168 7.208C33.712 8.104 33.984 9.096 33.984 10.184V12.2H42ZM18 10.184V12.2H30V10.184C30 9.64 29.792 9.176 29.376 8.792C28.992 8.408 28.528 8.216 27.984 8.216H20.016C19.472 8.216 18.992 8.408 18.576 8.792C18.192 9.176 18 9.64 18 10.184ZM38.016 38.216V28.184H33.984V30.2C33.92 30.68 33.696 31.096 33.312 31.448C32.928 31.768 32.48 31.928 31.968 31.928C31.488 31.928 31.056 31.768 30.672 31.448C30.288 31.096 30.064 30.68 30 30.2V28.184H18V30.2C17.936 30.68 17.712 31.096 17.328 31.448C16.944 31.768 16.496 31.928 15.984 31.928C15.504 31.928 15.072 31.768 14.688 31.448C14.304 31.096 14.08 30.68 14.016 30.2V28.184H9.984V38.216C9.984 38.76 10.176 39.224 10.56 39.608C10.976 39.992 11.456 40.184 12 40.184H36C36.544 40.184 37.008 39.992 37.392 39.608C37.808 39.224 38.016 38.76 38.016 38.216ZM39.984 22.184V16.184H8.016V22.184C8.016 22.728 8.208 23.208 8.592 23.624C8.976 24.008 9.44 24.2 9.984 24.2H14.016V22.184C14.08 21.704 14.304 21.304 14.688 20.984C15.072 20.632 15.504 20.456 15.984 20.456C16.496 20.456 16.944 20.632 17.328 20.984C17.712 21.304 17.936 21.704 18 22.184V24.2H30V22.184C30.064 21.704 30.288 21.304 30.672 20.984C31.056 20.632 31.488 20.456 31.968 20.456C32.48 20.456 32.928 20.632 33.312 20.984C33.696 21.304 33.92 21.704 33.984 22.184V24.2H38.016C38.56 24.2 39.024 24.008 39.408 23.624C39.792 23.208 39.984 22.728 39.984 22.184Z" fill="#443FDE"/>
</svg>
