<svg width="220" height="50" viewBox="0 0 220 50" fill="none" xmlns="http://www.w3.org/2000/svg">
<path fill-rule="evenodd" clip-rule="evenodd" d="M0 50H50.3513V0H0V50ZM32.2793 3.82082C41.1945 6.71937 47.6065 15.0856 47.6285 24.989C47.6504 34.7387 41.3483 43.083 32.2793 46.1792V3.82082ZM25.1647 2.67896C26.7677 2.67896 28.4805 2.87659 29.9078 3.18401C29.9078 14.5147 18.8625 23.8252 7.48792 23.8252H2.72288C3.51339 12.209 13.1972 2.67896 25.1647 2.67896ZM7.48792 26.1748C18.8845 26.1748 29.9078 35.4853 29.9078 46.816C28.4805 47.1014 26.6798 47.321 25.1647 47.321C13.1752 47.2991 3.18401 37.747 2.72288 26.1748H7.48792ZM67.2156 29.3808V26.2407H77.6899V22.2222H67.2156V16.3812H78.3707V12.3847H62.9337V29.249C62.9337 33.509 64.7562 36.4295 69.0382 37.0224C69.126 37.0443 69.2139 37.0444 69.2797 37.0444H69.3676C69.8068 37.0883 70.2459 37.1322 70.729 37.1322H78.6561V33.1357H70.751C69.3895 33.0918 67.2156 32.433 67.2156 29.3808ZM81.7084 37.1102V24.0448V12.3628H86.0123V37.1102H81.7084ZM98.3092 18.643C92.8854 18.643 88.823 22.354 88.823 28.1291V28.2828C88.823 33.9262 92.7536 37.5714 98.419 37.5714C101.142 37.5714 103.689 36.8248 106.039 34.3654L103.448 31.8621C102.086 33.2235 100.747 33.9262 98.5507 33.9262C95.3667 33.9262 93.2367 32.0817 93.105 29.2271H107.18C107.246 28.5244 107.246 27.7339 107.246 27.7339C107.246 22.6614 103.689 18.643 98.3092 18.643ZM93.1928 26.1968C93.3904 24.0228 95.6082 22.2661 98.2872 22.2661C100.812 22.2661 102.855 24.0448 102.855 26.1968H93.1928ZM123.913 24.4181C122.683 23.1664 121.256 22.4638 119.324 22.4638C116.14 22.4638 113.746 24.8573 113.724 28.0852C113.724 31.3351 116.14 33.7286 119.302 33.7286C121.234 33.7286 122.661 33.0039 123.891 31.7523L126.548 34.4971C124.462 36.715 121.981 37.6153 119.302 37.6153C113.834 37.6153 109.464 33.5749 109.464 28.0852C109.464 22.5955 113.856 18.5771 119.324 18.5771C122.003 18.5771 124.484 19.4774 126.57 21.6732L123.913 24.4181ZM133.531 29.3808V23.0786H137.44V19.1919H133.553V12.3408H129.249V29.6443C129.381 33.6627 131.203 36.4075 135.354 36.9785C135.441 37.0004 135.529 37.0224 135.617 37.0224H135.683C136.122 37.0663 136.583 37.1102 137.044 37.1102H137.505V33.1137H137.066C135.705 33.0918 133.531 32.433 133.531 29.3808ZM145.301 19.2139V21.8709C146.157 20.0264 148.09 18.8406 150.659 18.8186C151.12 18.8186 151.757 18.8845 151.932 18.9284V23.0567C151.449 22.9469 150.834 22.881 150.154 22.881C147.189 22.881 145.301 24.7475 145.301 27.6899V37.1102H141.041V19.2139H145.301ZM162.429 18.6649C156.961 18.6649 152.591 22.7931 152.591 28.1511C152.591 33.509 156.939 37.6372 162.429 37.6372C167.852 37.6372 172.266 33.509 172.266 28.1511C172.266 22.7931 167.874 18.6649 162.429 18.6649ZM162.429 33.7725C159.245 33.7725 156.851 31.3131 156.851 28.1511C156.851 24.989 159.245 22.5296 162.429 22.5296C165.591 22.5296 168.006 24.989 168.006 28.1511C168.006 31.3131 165.591 33.7725 162.429 33.7725ZM174.901 37.0883V23.6056V12.3408H179.205V37.0883H174.901ZM194.686 29.6004C194.686 32.433 193.017 33.6408 190.755 33.6408C188.516 33.6408 186.825 32.433 186.825 29.6443V19.1919H182.499V29.9956C182.499 35.112 186.254 37.5714 190.711 37.5714C195.213 37.5714 199.012 35.09 199.012 29.9078V24.3961V19.2139H194.686V29.6004ZM212.538 27.6241L215.239 31.379L219.346 37.1322H214.734L210.145 30.8081L205.577 37.1322H200.966L204.062 32.8283L207.795 27.668L204.238 22.8371L201.581 19.2139H206.236L210.167 24.5718L214.076 19.2139H218.753L215.898 23.1006L212.538 27.6241Z" fill="#352F36"/>
</svg>
