<svg width="32" height="32" viewBox="0 0 32 32" fill="none" xmlns="http://www.w3.org/2000/svg">
<path d="M16 6C17.8565 6 19.637 6.7375 20.9497 8.05025C22.2625 9.36301 23 11.1435 23 13H24.074C24.3259 13 24.5685 13.0951 24.7533 13.2662C24.9382 13.4373 25.0516 13.6719 25.071 13.923L25.917 24.923C25.9374 25.1874 25.852 25.4491 25.6794 25.6505C25.5069 25.8519 25.2614 25.9766 24.997 25.997L24.92 26H7.08C6.81479 26 6.56043 25.8946 6.3729 25.7071C6.18536 25.5196 6.08 25.2652 6.08 25L6.083 24.923L6.929 13.923C6.9484 13.6719 7.06185 13.4373 7.24668 13.2662C7.43152 13.0951 7.67412 13 7.926 13H9C9 11.1435 9.7375 9.36301 11.0503 8.05025C12.363 6.7375 14.1435 6 16 6ZM18 17H14V19H18V17ZM16 8C14.7115 8.00007 13.4728 8.49754 12.5422 9.38866C11.6116 10.2798 11.0609 11.4958 11.005 12.783L11 13H21C20.9999 11.7115 20.5025 10.4728 19.6113 9.54222C18.7202 8.61161 17.5043 8.06092 16.217 8.005L16 8Z" fill="#F6A94C"/>
</svg>
