<svg width="143" height="32" viewBox="0 0 143 32" fill="none" xmlns="http://www.w3.org/2000/svg">
<g clip-path="url(#clip0)">
<path fill-rule="evenodd" clip-rule="evenodd" d="M0 16C-7.7426e-09 15.4804 0.102342 14.9659 0.301183 14.4859C0.500024 14.0058 0.79147 13.5696 1.15888 13.2022C1.52629 12.8348 1.96247 12.5434 2.44252 12.3445C2.92256 12.1457 3.43707 12.0434 3.95667 12.0434C4.47626 12.0434 4.99077 12.1457 5.47082 12.3445C5.95086 12.5434 6.38704 12.8348 6.75445 13.2022C7.12186 13.5696 7.41331 14.0058 7.61215 14.4859C7.81099 14.9659 7.91333 15.4804 7.91333 16C7.91333 17.0494 7.49647 18.0558 6.75445 18.7978C6.01243 19.5398 5.00604 19.9567 3.95667 19.9567C2.90729 19.9567 1.9009 19.5398 1.15888 18.7978C0.416862 18.0558 1.56369e-08 17.0494 0 16H0ZM27.7867 19.96C26.7369 19.96 25.73 19.543 24.9877 18.8007C24.2454 18.0583 23.8283 17.0515 23.8283 16.0017C23.8283 14.9519 24.2454 13.9451 24.9877 13.2027C25.73 12.4604 26.7369 12.0434 27.7867 12.0434C28.836 12.0434 29.8424 12.4602 30.5845 13.2022C31.3265 13.9443 31.7433 14.9506 31.7433 16C31.7433 17.0494 31.3265 18.0558 30.5845 18.7978C29.8424 19.5398 28.836 19.9567 27.7867 19.9567V19.96ZM27.7867 0.166687C25.708 0.167125 23.6498 0.577037 21.7296 1.37301C19.8093 2.16899 18.0647 3.33544 16.5953 4.80575C15.1259 6.27605 13.9606 8.02141 13.1658 9.94214C12.3711 11.8629 11.9625 13.9214 11.9633 16C11.9625 18.0787 12.3711 20.1372 13.1658 22.0579C13.9606 23.9786 15.1259 25.724 16.5953 27.1943C18.0647 28.6646 19.8093 29.8311 21.7296 30.627C23.6498 31.423 25.708 31.8329 27.7867 31.8334C29.8651 31.8325 31.9229 31.4222 33.8428 30.6261C35.7626 29.8299 37.5068 28.6634 38.9759 27.1931C40.4449 25.7229 41.6099 23.9776 42.4045 22.0571C43.199 20.1366 43.6076 18.0784 43.6067 16C43.6076 13.9216 43.199 11.8634 42.4045 9.94291C41.6099 8.02239 40.4449 6.27718 38.9759 4.80692C37.5068 3.33666 35.7626 2.17014 33.8428 1.37397C31.9229 0.577798 29.8651 0.167562 27.7867 0.166687ZM140.867 14.7734C141.117 14.7734 141.267 14.6634 141.267 14.46C141.267 14.2734 141.167 14.1534 140.887 14.1534H140.627V14.7734H140.87H140.867ZM140.247 13.84H140.95C141.34 13.84 141.673 13.9967 141.673 14.44C141.673 14.6634 141.533 14.8767 141.33 14.95L141.757 15.7167H141.333L141.01 15.07H140.63V15.72H140.25V13.84H140.247ZM142.293 14.8034C142.293 13.9334 141.693 13.31 140.913 13.31C140.137 13.31 139.547 13.9334 139.547 14.8034C139.547 15.6834 140.137 16.2834 140.913 16.2834C141.69 16.2834 142.293 15.6834 142.293 14.8034ZM139.173 14.8034C139.173 13.72 139.96 12.9767 140.913 12.9767C141.877 12.9767 142.663 13.72 142.663 14.8034C142.663 15.8867 141.877 16.6267 140.913 16.6267C139.96 16.6267 139.173 15.8867 139.173 14.8034ZM127.567 22.21C127.8 22.21 128 22.01 128 21.7767V20.19C128 19.9567 127.8 19.7567 127.567 19.7567H127.5C127.307 19.7567 127.11 19.5667 127.11 19.3734V9.95335C127.11 9.74002 126.897 9.52335 126.683 9.52335H125.1C124.883 9.52335 124.67 9.74002 124.67 9.95669V20.3867L124.677 20.66C124.704 21.0627 124.877 21.4417 125.162 21.7267C125.448 22.0118 125.827 22.1835 126.23 22.21H127.563H127.567ZM57.9533 12.01C60.1067 12.01 61.92 13.8367 61.92 16C61.92 17.0498 61.503 18.0567 60.7606 18.799C60.0183 19.5413 59.0115 19.9584 57.9617 19.9584C56.9119 19.9584 55.905 19.5413 55.1627 18.799C54.4204 18.0567 54.0033 17.0498 54.0033 16C54.0033 13.8 55.7767 12.0134 57.9533 12.0134V12.01ZM57.9533 9.50002C56.2362 9.50796 54.5923 10.1968 53.3824 11.4154C52.1726 12.634 51.4956 14.2828 51.5 16C51.5 19.6234 54.3333 22.4667 57.9567 22.4667C58.8092 22.4769 59.6552 22.3168 60.445 21.9955C61.2347 21.6743 61.9523 21.1985 62.5557 20.5961C63.159 19.9937 63.6359 19.2768 63.9584 18.4876C64.2808 17.6983 64.4423 16.8526 64.4333 16C64.4333 12.4167 61.5267 9.50002 57.9567 9.50002H57.9533ZM109.483 19.6334C109.367 19.9667 108.663 20.59 107.863 20.59C107.023 20.59 106.553 20.0834 106.553 19.3234C106.553 18.52 107.12 18.03 108.153 18.03C108.877 18.03 109.483 18.3034 109.483 18.3034V19.6367V19.6334ZM108.43 12.97C106.963 12.97 105.537 13.34 105.343 13.42C105.147 13.4767 104.973 13.6334 105.05 13.9667L105.247 14.9834C105.283 15.2567 105.46 15.47 105.753 15.3734C106.28 15.2167 107.47 15.04 108.293 15.04C109.25 15.04 109.58 15.59 109.54 16.74C109.54 16.74 108.72 16.4867 107.803 16.4867C105.52 16.4867 104.21 17.72 104.21 19.32C104.21 21.2534 105.46 22.41 107.257 22.41C108.663 22.41 109.56 21.7834 110.09 21.2767V21.76C110.09 21.9934 110.283 22.1934 110.517 22.1934H111.397C111.63 22.1934 111.827 22 111.827 21.7634V16.9C111.827 14.44 111.24 12.9734 108.427 12.9734L108.43 12.97ZM92.0333 12.97C90.3067 12.97 89.4667 13.9 89.1333 14.27V13.6C89.1333 13.3667 88.9333 13.1667 88.7 13.1667H87.68C87.5657 13.1676 87.4563 13.2136 87.3758 13.2948C87.2952 13.376 87.25 13.4857 87.25 13.6V21.7667C87.25 22 87.4633 22.2 87.68 22.2H89.1233C89.5567 22.2 89.69 22.1 89.69 21.7667V16.6034C89.8168 16.1874 90.0765 15.8246 90.4294 15.5705C90.7822 15.3164 91.2087 15.1851 91.6433 15.1967C92.7367 15.1967 93.2067 15.92 93.2067 17.0934V21.7634C93.2067 21.9967 93.4 22.1967 93.6367 22.1967H95.2167C95.4333 22.1967 95.65 21.9967 95.65 21.7634V17.0934C95.65 14.9034 94.9033 12.97 92.0333 12.97ZM70.5333 20.18C69.8741 20.1875 69.2256 20.0121 68.66 19.6734V16.4467C68.8255 16.0609 69.1046 15.7346 69.46 15.5113C69.8155 15.288 70.2306 15.1783 70.65 15.1967C72.0567 15.1967 72.78 16.43 72.78 17.6967C72.78 18.97 72.0167 20.18 70.5333 20.18ZM70.9833 12.97C69.1267 12.97 68.1 14.2367 68.0367 14.3167V13.5967C68.0367 13.3634 67.8433 13.1634 67.6067 13.1634H66.6467C66.4133 13.1634 66.2167 13.3634 66.2167 13.5967V25.4334C66.2167 25.65 66.4133 25.8667 66.65 25.8667H68.23C68.4433 25.8667 68.66 25.65 68.66 25.4334V22.0334C69.3567 22.2763 70.0888 22.4024 70.8267 22.4067C73.5233 22.4067 75.3 20.3334 75.3 17.6967C75.3 14.96 73.4433 12.9667 70.9833 12.9667V12.97ZM135.383 16.5467C135.343 15.6667 134.64 14.98 133.643 14.98C132.55 14.98 131.85 15.6467 131.73 16.5467H135.383ZM133.7 12.9667C136.043 12.9667 137.84 14.7067 137.84 17.1467C137.84 17.2834 137.82 17.5967 137.8 17.7334C137.78 17.9667 137.567 18.1434 137.37 18.1434H131.59C131.61 19.2567 132.53 20.2367 133.837 20.2367C134.737 20.2367 135.36 19.9034 135.77 19.57C135.983 19.3967 136.22 19.3767 136.357 19.57L137.117 20.5867C137.273 20.7634 137.293 20.9767 137.077 21.1734C136.297 21.84 135.183 22.4067 133.72 22.4067C131.023 22.4067 129.153 20.2534 129.153 17.6734C129.153 15.1367 131.023 12.9667 133.7 12.9667ZM118.417 20.1767C117.997 20.1951 117.582 20.0854 117.227 19.8621C116.871 19.6388 116.592 19.3125 116.427 18.9267V15.7034C116.427 15.7034 117.167 15.1934 118.3 15.1934C119.783 15.1934 120.547 16.4067 120.547 17.6767C120.547 18.9434 119.823 20.1767 118.417 20.1767ZM118.63 12.9667C117.733 12.9667 116.837 13.1834 116.427 13.3567V9.92335C116.427 9.70669 116.227 9.49002 115.993 9.49002H114.413C114.2 9.49002 113.983 9.70669 113.983 9.92335V21.7634C113.983 21.9967 114.2 22.1967 114.417 22.1967H115.097C115.11 22.1967 115.123 22.1967 115.137 22.19H115.32C115.553 22.19 115.753 21.9967 115.753 21.76V21.0934L115.76 21.06C115.76 21.06 116.793 22.41 118.767 22.41C121.23 22.41 123.007 20.26 123.007 17.6767C123.007 15.0434 121.307 12.97 118.63 12.97V12.9667ZM104.817 9.49002H95.6333C95.42 9.49002 95.2633 9.66335 95.2633 9.85669V11.4634C95.2633 11.6567 95.42 11.8334 95.6333 11.8334H98.9467V21.82C98.9467 22.0134 99.1234 22.19 99.3167 22.19H101.133C101.33 22.19 101.507 22.0134 101.507 21.82V11.8334H104.82C105.033 11.8334 105.187 11.6567 105.187 11.4634V9.86002C105.187 9.66335 105.033 9.49002 104.82 9.49002H104.817ZM82.95 16.5434C82.91 15.6634 82.2067 14.9767 81.2133 14.9767C80.12 14.9767 79.4133 15.6434 79.3 16.5434H82.95ZM81.27 12.9667C83.6133 12.9667 85.41 14.7067 85.41 17.1467C85.41 17.2834 85.39 17.5967 85.37 17.7334C85.35 17.9667 85.1367 18.1434 84.9433 18.1434H79.1667C79.1833 19.2567 80.1 20.2367 81.41 20.2367C82.31 20.2367 82.9333 19.9034 83.3433 19.57C83.56 19.3967 83.7933 19.3767 83.93 19.57L84.69 20.5867C84.8467 20.7634 84.8667 20.9767 84.6533 21.1734C83.87 21.84 82.7567 22.4067 81.2933 22.4067C78.6 22.4067 76.7267 20.2534 76.7267 17.6734C76.7267 15.1367 78.6 12.9667 81.2733 12.9667H81.27Z" fill="#6D7D93"/>
</g>
<defs>
<clipPath id="clip0">
<rect width="142.667" height="32" fill="white"/>
</clipPath>
</defs>
</svg>
