<svg width="106" height="30" viewBox="0 0 106 30" fill="none" xmlns="http://www.w3.org/2000/svg">
<g clip-path="url(#clip0)">
<path fill-rule="evenodd" clip-rule="evenodd" d="M36.8311 16.6172C35.9404 16.125 35.4717 15.7266 35.4717 15.1641C35.4717 14.4375 36.1045 13.9922 37.1123 13.9922C38.2842 13.9922 39.3154 14.4844 39.3154 14.4844L40.1357 11.9766C40.1357 11.9766 39.3857 11.3906 37.1592 11.3906C34.0654 11.3906 31.9092 13.1719 31.9092 15.6563C31.9092 17.0625 32.917 18.1406 34.2529 18.9141C35.3311 19.5234 35.7061 19.9688 35.7061 20.6016C35.7061 21.2813 35.167 21.8203 34.1592 21.8203C32.6592 21.8203 31.2529 21.0469 31.2529 21.0469L30.3857 23.5547C30.3857 23.5547 31.6982 24.4219 33.8779 24.4219C37.0654 24.4219 39.3389 22.8516 39.3389 20.0391C39.3857 18.4922 38.2139 17.4141 36.8311 16.6172ZM49.5342 11.3438C47.9639 11.3438 46.7451 12.0938 45.7842 13.2188L45.7373 13.1953L47.0967 6.07031H43.5576L40.1123 24.1875H43.6514L44.8232 18C45.292 15.6563 46.4873 14.2266 47.6123 14.2266C48.4092 14.2266 48.7139 14.7656 48.7139 15.5391C48.7139 16.0313 48.667 16.6172 48.5498 17.1094L47.2139 24.2109H50.7529L52.1357 16.8984C52.2998 16.125 52.3936 15.2109 52.3936 14.5781C52.417 12.5391 51.3623 11.3438 49.5342 11.3438ZM60.4326 11.3438C56.167 11.3438 53.3311 15.1875 53.3311 19.4766C53.3311 22.2188 55.0186 24.4453 58.2061 24.4453C62.4014 24.4453 65.2139 20.6953 65.2139 16.3125C65.2373 13.7578 63.7607 11.3438 60.4326 11.3438ZM58.6982 21.7031C57.4795 21.7031 56.9873 20.6719 56.9873 19.3828C56.9873 17.3438 58.042 14.0391 59.9639 14.0391C61.2295 14.0391 61.6279 15.1172 61.6279 16.1719C61.6279 18.375 60.5732 21.7031 58.6982 21.7031ZM74.3076 11.3438C71.917 11.3438 70.5576 13.4531 70.5576 13.4531H70.5107L70.7217 11.5547H67.5811C67.417 12.8438 67.1357 14.7891 66.8545 16.2656L64.3936 29.25H67.9326L68.917 24H68.9873C68.9873 24 69.7139 24.4688 71.0732 24.4688C75.2451 24.4688 77.9639 20.2031 77.9639 15.8906C77.9639 13.4766 76.9092 11.3438 74.3076 11.3438ZM70.9326 21.7734C70.0186 21.7734 69.4795 21.2578 69.4795 21.2578L70.0654 17.9531C70.4873 15.75 71.6358 14.2734 72.8545 14.2734C73.9326 14.2734 74.2608 15.2812 74.2608 16.2188C74.2608 18.4922 72.9014 21.7734 70.9326 21.7734ZM83.0264 6.23438C81.9014 6.23438 80.9873 7.125 80.9873 8.29688C80.9873 9.35156 81.6436 10.0781 82.6514 10.0781H82.6983C83.7998 10.0781 84.7608 9.32813 84.7842 8.01563C84.8076 6.98438 84.1045 6.23438 83.0264 6.23438Z" fill="#6D7D93"/>
<path fill-rule="evenodd" clip-rule="evenodd" d="M78.0576 24.1875H81.6201L84.0342 11.625H80.4482L78.0576 24.1875Z" fill="#6D7D93"/>
<path fill-rule="evenodd" clip-rule="evenodd" d="M93.0342 11.5781H90.5732L90.6904 10.9922C90.9014 9.77344 91.6045 8.69531 92.7998 8.69531C93.4326 8.69531 93.9248 8.88281 93.9248 8.88281L94.6279 6.11719C94.6279 6.11719 94.0186 5.8125 92.7061 5.8125C91.4404 5.8125 90.1982 6.16406 89.2373 6.98438C88.0186 8.01562 87.4561 9.49219 87.1748 10.9922L87.0811 11.5781H85.4404L84.9248 14.25H86.5654L84.6904 24.1641H88.2295L90.1045 14.25H92.542L93.0342 11.5781ZM101.565 11.625C101.565 11.625 99.3389 17.2031 98.3545 20.25H98.3076C98.2373 19.2656 97.4404 11.625 97.4404 11.625H93.7139L95.8467 23.1562C95.8936 23.4141 95.8701 23.5781 95.7764 23.7422C95.3545 24.5391 94.6748 25.3125 93.8545 25.875C93.1982 26.3672 92.4482 26.6719 91.8623 26.8828L92.8467 29.8828C93.5732 29.7188 95.0498 29.1328 96.3154 27.9609C97.9326 26.4375 99.4326 24.1172 100.956 20.9297L105.292 11.625H101.565ZM17.542 29.1328L26.3076 27.2344C26.3076 27.2344 23.1436 5.83594 23.1201 5.69531C23.0967 5.55469 22.9795 5.46094 22.8623 5.46094C22.7451 5.46094 20.5186 5.29688 20.5186 5.29688C20.5186 5.29688 18.9717 3.75 18.7842 3.58594C18.7373 3.53906 18.6904 3.51562 18.6436 3.49219L17.542 29.1328ZM18.2686 3.44531C18.2451 3.44531 18.1982 3.46875 18.1748 3.46875C18.1514 3.46875 17.8232 3.5625 17.3076 3.72656C16.792 2.22656 15.8779 0.84375 14.2607 0.84375H14.1201C13.6514 0.257812 13.0889 0 12.5967 0C8.82324 0 7.01855 4.71094 6.45605 7.10156C5.00293 7.54688 3.94824 7.875 3.83105 7.92188C3.01074 8.17969 2.9873 8.20312 2.89355 8.97656C2.7998 9.53906 0.666992 26.0625 0.666992 26.0625L17.1436 29.1562L18.2686 3.44531ZM13.9795 4.59375V4.75781C13.0654 5.03906 12.0576 5.34375 11.0732 5.64844C11.6357 3.49219 12.6904 2.4375 13.6045 2.03906C13.8389 2.64844 13.9795 3.46875 13.9795 4.59375ZM12.4795 1.00781C12.6436 1.00781 12.8076 1.05469 12.9717 1.17188C11.7764 1.73438 10.4639 3.16406 9.9248 6.02344C9.12793 6.28125 8.35449 6.51562 7.62793 6.72656C8.26074 4.54688 9.78418 1.00781 12.4795 1.00781ZM13.1357 13.7344C13.1357 13.7344 12.1514 13.2188 10.9795 13.2188C9.22168 13.2188 9.15137 14.3203 9.15137 14.6016C9.15137 16.1016 13.0889 16.6875 13.0889 20.2266C13.0889 23.0156 11.3311 24.7969 8.94043 24.7969C6.08105 24.7969 4.62793 23.0156 4.62793 23.0156L5.40137 20.4844C5.40137 20.4844 6.90137 21.7734 8.16699 21.7734C8.9873 21.7734 9.33887 21.1172 9.33887 20.6484C9.33887 18.6797 6.10449 18.5859 6.10449 15.3516C6.10449 12.6328 8.04981 9.98438 12.0107 9.98438C13.5342 9.98438 14.2842 10.4297 14.2842 10.4297L13.1357 13.7344ZM14.6357 1.875C15.4795 1.96875 16.0186 2.92969 16.3701 4.00781C15.9482 4.14844 15.4795 4.28906 14.9639 4.45312V4.14844C14.9639 3.23438 14.8467 2.48438 14.6357 1.875Z" fill="#6D7D93"/>
</g>
<defs>
<clipPath id="clip0">
<rect width="104.766" height="30" fill="white" transform="translate(0.666992)"/>
</clipPath>
</defs>
</svg>
