<svg width="84" height="40" viewBox="0 0 84 40" fill="none" xmlns="http://www.w3.org/2000/svg">
<path d="M51.5702 31.14C46.8502 34.6234 40.0102 36.4734 34.1168 36.4734C26.2451 36.5116 18.6429 33.6086 12.8002 28.3334C12.3602 27.9334 12.7535 27.3867 13.2835 27.6967C19.7786 31.4141 27.1332 33.3677 34.6168 33.3634C40.2069 33.336 45.7364 32.2032 50.8868 30.03C51.6835 29.6967 52.3535 30.5567 51.5735 31.1334" fill="#6D7D93"/>
<path d="M53.5337 28.9C54.137 29.6733 52.867 32.8567 52.2937 34.28C52.1203 34.71 52.4903 34.8833 52.8803 34.5567C55.4103 32.44 56.0637 28.0033 55.547 27.36C55.0303 26.7167 50.607 26.18 47.907 28.0767C47.4903 28.3667 47.5737 28.77 48.0203 28.7133C49.5437 28.5333 52.927 28.1267 53.5337 28.9ZM48.1303 14.6667C48.1294 14.7289 48.1411 14.7907 48.1649 14.8482C48.1887 14.9058 48.224 14.9578 48.2686 15.0012C48.3133 15.0446 48.3663 15.0784 48.4245 15.1006C48.4827 15.1227 48.5448 15.1327 48.607 15.13H52.9237L47.9637 22.2533C47.7376 22.6356 47.6308 23.0767 47.657 23.52V25.3867C47.657 25.66 47.957 25.9667 48.247 25.8167C49.5962 25.119 51.093 24.7549 52.612 24.7549C54.1309 24.7549 55.6278 25.119 56.977 25.8167C57.287 25.98 57.5837 25.6667 57.5837 25.3967V23.43C57.581 23.2821 57.5392 23.1375 57.4625 23.0111C57.3858 22.8846 57.2769 22.7807 57.147 22.71C55.6933 21.9619 54.0659 21.6166 52.4337 21.71L56.7137 15.6C57.1103 15.05 57.3337 14.7033 57.3337 14.44V12.83C57.3346 12.7679 57.3229 12.7062 57.2994 12.6488C57.2758 12.5913 57.2409 12.5392 57.1967 12.4956C57.1524 12.452 57.0998 12.4178 57.042 12.395C56.9842 12.3723 56.9224 12.3615 56.8603 12.3633H48.597C48.5353 12.362 48.474 12.3731 48.4168 12.3961C48.3596 12.419 48.3076 12.4534 48.264 12.497C48.2204 12.5406 48.186 12.5926 48.1631 12.6498C48.1401 12.707 48.129 12.7683 48.1303 12.83V14.6667ZM17.9903 26.1867C18.0526 26.1884 18.1146 26.1778 18.1727 26.1554C18.2309 26.133 18.284 26.0993 18.3289 26.0561C18.3739 26.013 18.4099 25.9614 18.4347 25.9043C18.4596 25.8471 18.4728 25.7856 18.4737 25.7233V18.8833C18.477 17.39 18.4003 15.3333 20.2137 15.3333C22.027 15.3333 21.7603 17.45 21.7603 18.8867V25.7267C21.762 25.8464 21.8096 25.961 21.8934 26.0466C21.9771 26.1323 22.0906 26.1824 22.2103 26.1867H24.7337C24.7958 26.188 24.8576 26.1771 24.9156 26.1545C24.9735 26.1319 25.0264 26.0982 25.0713 26.0551C25.1162 26.0121 25.1522 25.9607 25.1772 25.9037C25.2022 25.8468 25.2157 25.7855 25.217 25.7233V18.8833C25.217 18.15 25.1937 17.0667 25.4503 16.4167C25.5692 16.112 25.7752 15.849 26.0425 15.6605C26.3098 15.472 26.6267 15.3663 26.9537 15.3567C27.6803 15.3567 28.2437 15.6 28.4303 16.47C28.5503 16.9833 28.5037 18.3433 28.5037 18.8833V25.7267C28.5053 25.8464 28.5529 25.961 28.6367 26.0466C28.7205 26.1323 28.8339 26.1824 28.9537 26.1867H31.4637C31.5895 26.1894 31.7113 26.1421 31.8025 26.0553C31.8937 25.9685 31.9468 25.8492 31.9503 25.7233V17.5833C31.9503 16.1967 32.1103 14.62 31.3137 13.5367C30.9068 13.0225 30.3711 12.6252 29.7609 12.3852C29.1507 12.1451 28.4879 12.071 27.8397 12.1702C27.1916 12.2694 26.5813 12.5385 26.0708 12.95C25.5604 13.3616 25.168 13.901 24.9337 14.5133C24.227 12.8867 23.2437 12.1267 21.6703 12.1267C20.097 12.1267 18.9703 12.8867 18.3637 14.5133H18.317V12.8467C18.3072 12.7305 18.2548 12.622 18.1699 12.542C18.085 12.462 17.9736 12.4162 17.857 12.4133H15.5237C15.3978 12.4106 15.276 12.4579 15.1848 12.5447C15.0936 12.6315 15.0405 12.7508 15.037 12.8767V25.7633C15.0482 25.8764 15.0999 25.9815 15.1827 26.0593C15.2654 26.1372 15.3735 26.1824 15.487 26.1867H18.0003H17.9903ZM64.447 12.1233C60.8103 12.1233 58.7803 15.2467 58.7803 19.2667C58.7803 23.2867 60.7803 26.46 64.447 26.46C67.967 26.46 70.197 23.3367 70.197 19.4C70.197 15.3333 68.177 12.1233 64.447 12.1233ZM64.447 23.79C62.477 23.79 62.5003 20.4233 62.5003 18.8467C62.5003 17.27 62.617 14.7467 64.4703 14.7467C65.2703 14.7467 65.8303 15.1 66.1137 15.9967C66.4045 17.1124 66.5313 18.2644 66.4903 19.4167C66.4903 21.0833 66.4003 23.8 64.447 23.8V23.79ZM75.0337 26.1867C75.1599 26.1894 75.282 26.1423 75.3737 26.0555C75.4654 25.9688 75.5193 25.8495 75.5237 25.7233V18.7767C75.4783 17.9429 75.6148 17.1092 75.9237 16.3333C76.0409 16.0399 76.2405 15.7865 76.4983 15.6038C76.7561 15.4211 77.0613 15.3167 77.377 15.3033C79.117 15.3033 78.9503 17.3633 78.9503 18.7767V25.7767C78.9645 25.8873 79.0175 25.9893 79.1 26.0644C79.1824 26.1395 79.2889 26.1828 79.4003 26.1867H81.9203C82.0361 26.1887 82.1486 26.1486 82.2369 26.0738C82.3253 25.9989 82.3833 25.8945 82.4003 25.78V17.6667C82.4003 16.42 82.4003 14.6667 81.7337 13.65C81.4217 13.161 80.9862 12.7629 80.4711 12.496C79.9561 12.2291 79.3798 12.1029 78.8003 12.13C77.0637 12.13 76.077 12.97 75.3737 14.7333H75.327V12.7567C75.3012 12.6566 75.2438 12.5675 75.1634 12.5026C75.0829 12.4377 74.9836 12.4006 74.8803 12.3967H72.547C72.4294 12.3957 72.3156 12.438 72.2271 12.5154C72.1387 12.5928 72.0817 12.7 72.067 12.8167V25.7267C72.0686 25.8464 72.1163 25.961 72.2 26.0466C72.2838 26.1323 72.3973 26.1824 72.517 26.1867H75.0203H75.0337ZM46.0203 23.8233C45.5603 23.1867 45.0703 22.6733 45.0703 21.49V17.58C45.0703 15.9133 45.187 14.3933 43.9637 13.2467C43.0003 12.3333 41.4003 12 40.1803 12C37.787 12 35.117 12.8933 34.557 15.85C34.5451 15.9093 34.5455 15.9705 34.5583 16.0296C34.571 16.0888 34.5959 16.1447 34.6312 16.1938C34.6666 16.2429 34.7117 16.2842 34.7637 16.3151C34.8158 16.346 34.8736 16.3658 34.9337 16.3733L37.3703 16.64C37.4831 16.6204 37.5864 16.5645 37.6646 16.4809C37.7428 16.3973 37.7916 16.2905 37.8037 16.1767C38.017 15.1567 38.867 14.6667 39.827 14.6667C40.0986 14.6544 40.369 14.7087 40.6148 14.8249C40.8605 14.9411 41.0742 15.1156 41.237 15.3333C41.5903 15.85 41.5437 16.5567 41.5437 17.1567V17.49C40.087 17.6533 38.1803 17.76 36.817 18.36C36.0047 18.688 35.313 19.258 34.8359 19.9927C34.3588 20.7274 34.1195 21.5912 34.1503 22.4667C34.1503 25.08 35.797 26.3867 37.9103 26.3867C39.7003 26.3867 40.677 25.9633 42.057 24.56C42.4319 25.1983 42.9198 25.7631 43.497 26.2267C43.5898 26.2792 43.6964 26.3019 43.8026 26.2918C43.9087 26.2816 44.0092 26.2391 44.0903 26.17C44.5903 25.72 45.5037 24.9267 46.017 24.5033C46.0628 24.4594 46.0993 24.4068 46.1243 24.3485C46.1493 24.2902 46.1624 24.2275 46.1627 24.164C46.163 24.1006 46.1506 24.0378 46.1261 23.9792C46.1016 23.9207 46.0657 23.8677 46.0203 23.8233ZM41.5437 20.0267C41.5437 21.0067 41.567 21.82 41.0737 22.6933C40.9126 23.022 40.666 23.3012 40.3599 23.5018C40.0537 23.7024 39.6993 23.8169 39.3337 23.8333C38.367 23.8333 37.8037 23.1 37.8037 22.0133C37.8037 19.8733 39.7237 19.4833 41.5437 19.4833V20.0267ZM13.067 23.8233C12.607 23.1867 12.117 22.6733 12.117 21.49V17.58C12.117 15.9133 12.237 14.3933 11.0137 13.2467C10.067 12.3333 8.45032 12 7.22699 12C4.83699 12 2.16698 12.8933 1.60698 15.85C1.59504 15.9091 1.59537 15.97 1.60794 16.0289C1.62051 16.0879 1.64506 16.1436 1.68007 16.1927C1.71507 16.2418 1.75979 16.2831 1.81144 16.3142C1.86308 16.3453 1.92057 16.3654 1.98032 16.3733L4.41699 16.64C4.52969 16.6195 4.63288 16.5634 4.71145 16.4801C4.79002 16.3967 4.83985 16.2904 4.85365 16.1767C5.06699 15.1567 5.91699 14.6667 6.87365 14.6667C7.14522 14.6544 7.41568 14.7087 7.66145 14.8249C7.90721 14.9411 8.12082 15.1156 8.28365 15.3333C8.63699 15.85 8.59032 16.5567 8.59032 17.1567V17.49C7.13365 17.6533 5.23032 17.76 3.86365 18.36C3.05134 18.688 2.35967 19.258 1.88258 19.9927C1.4055 20.7274 1.16613 21.5912 1.19698 22.4667C1.19698 25.08 2.84365 26.3867 4.96032 26.3867C6.74699 26.3867 7.72365 25.9633 9.10365 24.56C9.47957 25.1976 9.96737 25.7622 10.5437 26.2267C10.6364 26.2792 10.7431 26.3019 10.8492 26.2918C10.9554 26.2816 11.0558 26.2391 11.137 26.17C11.637 25.72 12.5503 24.9267 13.0637 24.5033C13.1099 24.4597 13.1467 24.4071 13.172 24.3488C13.1973 24.2905 13.2105 24.2276 13.2108 24.164C13.2111 24.1005 13.1985 24.0375 13.1738 23.9789C13.1491 23.9204 13.1128 23.8674 13.067 23.8233ZM8.59032 20.0267C8.59032 21.0067 8.61365 21.82 8.12032 22.6933C7.95922 23.022 7.71268 23.3012 7.40654 23.5018C7.1004 23.7024 6.74594 23.8169 6.38032 23.8333C5.41699 23.8333 4.85032 23.1 4.85032 22.0133C4.85032 19.8733 6.77365 19.4833 8.59032 19.4833V20.0267Z" fill="#6D7D93"/>
</svg>
