<svg width="99" height="28" viewBox="0 0 99 28" fill="none" xmlns="http://www.w3.org/2000/svg">
<g clip-path="url(#clip0)">
<path fill-rule="evenodd" clip-rule="evenodd" d="M64.9974 9.58578C68.8126 9.58578 72.1551 12.525 72.1551 16.4993C72.1542 20.4179 69.0705 23.4138 65.4857 23.4138C63.9 23.4138 62.7898 22.9511 61.7198 21.9022V28H58.51V16.706C58.51 12.4802 61.5653 9.58578 64.9974 9.58578ZM63.4856 0.816466C64.2873 0.0173364 65.4915 -0.220052 66.5366 0.215021C67.5816 0.650094 68.2616 1.67192 68.2594 2.80391C68.2557 3.03894 68.2228 3.27305 68.1597 3.50075L77.0055 10.3905C77.9711 9.6137 79.1249 9.10578 80.3499 8.91821V5.69279C79.4799 5.28618 78.9222 4.41445 78.9178 3.45412V3.38004C78.9178 2.0083 80.0298 0.89628 81.4016 0.89628H81.4756C82.8473 0.89628 83.9594 2.0083 83.9594 3.38004V3.45412C83.955 4.41445 83.3973 5.28618 82.5273 5.69279V8.91821C85.4492 9.36171 87.7866 11.5765 88.3867 14.4703C88.9868 17.3642 87.7229 20.3258 85.2183 21.8946C82.7137 23.4635 79.4974 23.3081 77.1556 21.5053L74.5346 24.1271C74.6032 24.3413 74.6396 24.5644 74.6425 24.7892C74.6415 26.058 73.6125 27.0858 72.3438 27.0855C71.0751 27.0852 70.0466 26.0567 70.0463 24.788C70.0459 23.5193 71.0738 22.4903 72.3426 22.4893C72.5674 22.4923 72.7905 22.5287 73.0047 22.5972L75.6539 19.947C73.9875 17.5721 73.9447 14.4193 75.5461 12L66.8355 5.22183C66.4168 5.46521 65.9416 5.59449 65.4574 5.59677C64.3254 5.59529 63.3057 4.91196 62.8741 3.8655C62.4424 2.81904 62.6838 1.61559 63.4856 0.816466ZM33.527 5.17336V11.263C34.5988 10.2122 35.7071 9.75131 37.2947 9.75131C40.8795 9.75405 43.9623 12.7499 43.9623 16.6676C43.9623 20.6347 40.6124 23.5812 36.8045 23.5812C33.3715 23.5812 30.3171 20.6859 30.3171 16.4609V5.17336H33.527ZM19.5014 9.65894V17.5839C19.5014 19.1282 20.7532 20.38 22.2975 20.38C23.8417 20.38 25.0935 19.1282 25.0935 17.5839V9.65894H28.2869V17.5839C28.2869 20.8951 25.6027 23.5793 22.2915 23.5793C18.9803 23.5793 16.2961 20.8951 16.2961 17.5839V9.65894H19.5014ZM93.7764 6.44999V10.1637H96.7211V12.9786H93.7764V18.5341C93.7764 19.7888 94.3151 20.6082 96.209 20.6082C96.5684 20.6054 96.979 20.5807 97.3365 20.556L96.5437 23.4751C96.1212 23.5501 95.6914 23.5848 95.2616 23.5775C92.5236 23.5775 90.5263 22.1189 90.5263 19.2245V7.90861L93.7764 6.44999ZM51.3028 5.06271C53.0431 5.06271 55.1684 6.04213 56.2164 7.45959L54.1177 9.93421C53.2974 9.05812 52.0445 8.33567 51.0953 8.33567C49.9183 8.33567 48.8438 8.85053 48.8438 10.4756C48.8383 13.4907 56.4953 11.3297 56.4953 18.2835C56.4953 21.5062 53.8378 23.5675 50.5337 23.5675C48.3325 23.5675 46.4944 22.6383 45.0038 20.8093L47.3339 18.3869C48.2045 19.3672 48.8191 20.2936 50.7148 20.2936C51.9165 20.2936 52.9663 19.3388 52.9663 18.2579C52.9663 14.7518 45.3102 16.7399 45.3102 10.4756C45.3102 7.09928 47.825 5.06271 51.3028 5.06271ZM3.77855 5.06271V12.813H10.8988V5.06271H14.2778V23.5638H10.8978V16.065H3.77941V23.5638H0.400391V5.06271H3.77855ZM37.2746 13.0645C35.9731 13.0645 34.7705 13.7588 34.1197 14.886C33.469 16.0131 33.469 17.4017 34.1197 18.5288C34.7705 19.6559 35.9731 20.3503 37.2746 20.3503C39.2865 20.3503 40.9174 18.7193 40.9174 16.7074C40.9174 14.6955 39.2865 13.0645 37.2746 13.0645ZM65.4725 12.8162C63.4606 12.8162 61.8295 14.4472 61.8295 16.4591C61.8295 18.471 63.4606 20.102 65.4725 20.102C67.4844 20.102 69.1153 18.471 69.1153 16.4591C69.1153 14.4472 67.4844 12.8162 65.4725 12.8162ZM81.4409 12.2771C80.1221 12.2409 78.8878 12.9236 78.2177 14.06C77.5477 15.1964 77.5477 16.607 78.2177 17.7434C78.8878 18.8798 80.1221 19.5626 81.4409 19.5263C83.3957 19.4542 84.9409 17.8515 84.9399 15.899C84.9389 13.9466 83.3921 12.3455 81.4409 12.2771Z" fill="#6D7D93"/>
</g>
<defs>
<clipPath id="clip0">
<rect width="98" height="28" fill="white" transform="translate(0.400391)"/>
</clipPath>
</defs>
</svg>
