<svg width="95" height="24" viewBox="0 0 95 24" fill="none" xmlns="http://www.w3.org/2000/svg">
<g clip-path="url(#clip0)">
<path fill-rule="evenodd" clip-rule="evenodd" d="M30.6361 18.8411L31.8106 16.1161C33.0786 17.0591 34.7628 17.554 36.4322 17.554C37.6577 17.554 38.435 17.0825 38.435 16.3604C38.4159 14.3533 31.0715 15.9229 31.0142 10.8914C30.9951 8.33206 33.2676 6.36533 36.4832 6.36533C38.3968 6.36533 40.3126 6.83684 41.6697 7.91578L40.5759 10.6981C39.3271 9.90162 37.7745 9.33029 36.2942 9.33029C35.2959 9.33029 34.6312 9.80817 34.6312 10.4156C34.6503 12.3823 42.052 11.3076 42.1285 16.1161C42.1285 18.7285 39.9112 20.5614 36.7338 20.5614C34.4039 20.5614 32.263 20.0156 30.6382 18.8411H30.6361ZM75.6839 15.1306C75.3156 15.7815 74.7423 16.292 74.0533 16.5827C73.3643 16.8733 72.5985 16.9277 71.8754 16.7373C71.1522 16.5469 70.5125 16.1224 70.056 15.5302C69.5995 14.9379 69.3519 14.2112 69.3519 13.4634C69.3519 12.7156 69.5995 11.9889 70.056 11.3966C70.5125 10.8044 71.1522 10.3799 71.8754 10.1895C72.5985 9.99908 73.3643 10.0534 74.0533 10.3441C74.7423 10.6347 75.3156 11.1453 75.6839 11.7961L78.9228 9.99507C78.1556 8.62189 76.9545 7.54205 75.5077 6.92478C74.0609 6.3075 72.4502 6.18768 70.928 6.58407C69.4058 6.98047 68.0582 7.8707 67.0962 9.11523C66.1342 10.3598 65.6124 11.8883 65.6124 13.4613C65.6124 15.0342 66.1342 16.5628 67.0962 17.8073C68.0582 19.0518 69.4058 19.9421 70.928 20.3385C72.4502 20.7348 74.0609 20.615 75.5077 19.9977C76.9545 19.3805 78.1556 18.3006 78.9228 16.9275L75.6839 15.1306ZM43.7533 0.47153H47.8099V20.2981H43.7533V0.47153ZM80.5115 0.47153V20.2981H84.5681V14.3575L89.3766 20.2981H94.5632L88.4464 13.2361L94.1066 6.64781H89.1451L84.5618 12.1168V0.47153H80.5115ZM59.8503 15.1689C59.5065 15.691 59.0372 16.1185 58.4855 16.4124C57.9338 16.7063 57.3171 16.8571 56.692 16.851C55.7936 16.851 54.9319 16.4941 54.2966 15.8588C53.6613 15.2235 53.3044 14.3618 53.3044 13.4634C53.3044 12.5649 53.6613 11.7033 54.2966 11.068C54.9319 10.4327 55.7936 10.0758 56.692 10.0758C58.0556 10.0758 59.2662 10.8298 59.8503 11.8174V15.1689ZM59.8503 6.64781V8.2556C59.1919 7.13843 57.5416 6.36109 55.8191 6.36109C52.2595 6.36109 49.4538 9.50445 49.4538 13.4421C49.4538 17.3841 52.2595 20.5614 55.8191 20.5614C57.5395 20.5614 59.1919 19.7883 59.8503 18.6712V20.2747H63.9069V6.64781H59.8503ZM5.58053 15.1498C5.58053 15.6443 5.43387 16.1277 5.15909 16.5388C4.88431 16.9499 4.49377 17.2704 4.03686 17.4595C3.57995 17.6486 3.07721 17.698 2.59224 17.6014C2.10726 17.5048 1.66184 17.2665 1.31232 16.9166C0.962797 16.5668 0.72488 16.1212 0.628664 15.6361C0.532447 15.1511 0.582255 14.6484 0.771787 14.1916C0.961318 13.7349 1.28206 13.3446 1.69343 13.0702C2.1048 12.7958 2.58833 12.6495 3.08284 12.6499H5.58053V15.1498ZM6.83151 15.1498C6.82176 14.8155 6.87918 14.4827 7.00037 14.171C7.12156 13.8593 7.30406 13.5751 7.53705 13.3352C7.77005 13.0953 8.04881 12.9046 8.35682 12.7744C8.66484 12.6442 8.99586 12.5771 9.33027 12.5771C9.66468 12.5771 9.9957 12.6442 10.3037 12.7744C10.6117 12.9046 10.8905 13.0953 11.1235 13.3352C11.3565 13.5751 11.539 13.8593 11.6602 14.171C11.7814 14.4827 11.8388 14.8155 11.829 15.1498V21.3961C11.8101 22.0462 11.5385 22.6634 11.072 23.1165C10.6054 23.5696 9.98065 23.8231 9.33027 23.8231C8.67989 23.8231 8.05512 23.5696 7.58858 23.1165C7.12204 22.6634 6.85046 22.0462 6.83151 21.3961V15.1498ZM9.33133 5.11011C8.83691 5.10969 8.35372 4.96267 7.94286 4.68764C7.532 4.4126 7.21193 4.02191 7.02311 3.56497C6.83429 3.10803 6.78521 2.60535 6.88208 2.12052C6.97895 1.63568 7.21741 1.19046 7.56732 0.841148C7.91722 0.491839 8.36285 0.254133 8.84785 0.158088C9.33285 0.0620443 9.83544 0.111976 10.2921 0.30157C10.7487 0.491163 11.1388 0.811903 11.4132 1.22323C11.6875 1.63456 11.8337 2.118 11.8333 2.61241V5.11011H9.33346H9.33133ZM9.33133 6.38445C9.6656 6.3747 9.99843 6.43212 10.3101 6.55331C10.6218 6.6745 10.906 6.857 11.1459 7.08999C11.3858 7.32299 11.5765 7.60175 11.7067 7.90977C11.8369 8.21778 11.904 8.5488 11.904 8.88321C11.904 9.21762 11.8369 9.54864 11.7067 9.85666C11.5765 10.1647 11.3858 10.4434 11.1459 10.6764C10.906 10.9094 10.6218 11.0919 10.3101 11.2131C9.99843 11.3343 9.6656 11.3917 9.33133 11.382H3.06584C2.73157 11.3917 2.39874 11.3343 2.08706 11.2131C1.77538 11.0919 1.49118 10.9094 1.25129 10.6764C1.01141 10.4434 0.820707 10.1647 0.690484 9.85666C0.560262 9.54864 0.493164 9.21762 0.493164 8.88321C0.493164 8.5488 0.560262 8.21778 0.690484 7.90977C0.820707 7.60175 1.01141 7.32299 1.25129 7.08999C1.49118 6.857 1.77538 6.6745 2.08706 6.55331C2.39874 6.43212 2.73157 6.3747 3.06584 6.38445H9.33133ZM19.3476 8.88215C19.3476 8.38764 19.4943 7.90424 19.7691 7.4931C20.0438 7.08196 20.4344 6.76155 20.8913 6.57241C21.3482 6.38327 21.8509 6.33389 22.3359 6.43052C22.8209 6.52714 23.2663 6.76544 23.6158 7.11526C23.9654 7.46508 24.2033 7.9107 24.2995 8.39576C24.3957 8.88082 24.3459 9.38352 24.1564 9.84026C23.9668 10.297 23.6461 10.6873 23.2347 10.9617C22.8233 11.2361 22.3398 11.3824 21.8453 11.382H19.3497V8.88215H19.3476ZM18.0966 8.88215C18.1064 9.21642 18.049 9.54925 17.9278 9.86093C17.8066 10.1726 17.6241 10.4568 17.3911 10.6967C17.1581 10.9366 16.8793 11.1273 16.5713 11.2575C16.2633 11.3877 15.9323 11.4548 15.5979 11.4548C15.2635 11.4548 14.9325 11.3877 14.6244 11.2575C14.3164 11.1273 14.0377 10.9366 13.8047 10.6967C13.5717 10.4568 13.3892 10.1726 13.268 9.86093C13.1468 9.54925 13.0894 9.21642 13.0991 8.88215V2.61241C13.0894 2.27814 13.1468 1.94531 13.268 1.63363C13.3892 1.32195 13.5717 1.03775 13.8047 0.797865C14.0377 0.557977 14.3164 0.367277 14.6244 0.237054C14.9325 0.106832 15.2635 0.0397339 15.5979 0.0397339C15.9323 0.0397339 16.2633 0.106832 16.5713 0.237054C16.8793 0.367277 17.1581 0.557977 17.3911 0.797865C17.6241 1.03775 17.8066 1.32195 17.9278 1.63363C18.049 1.94531 18.1064 2.27814 18.0966 2.61241V8.88215ZM15.6011 18.8984C16.0956 18.8984 16.579 19.0451 16.9901 19.3199C17.4013 19.5947 17.7217 19.9852 17.9108 20.4421C18.0999 20.899 18.1493 21.4018 18.0527 21.8867C17.9561 22.3717 17.7178 22.8171 17.368 23.1666C17.0181 23.5162 16.5725 23.7541 16.0875 23.8503C15.6024 23.9465 15.0997 23.8967 14.643 23.7072C14.1862 23.5176 13.7959 23.1969 13.5215 22.7855C13.2471 22.3742 13.1008 21.8906 13.1012 21.3961V18.8984H15.6011ZM15.6011 17.6475C15.2668 17.6572 14.934 17.5998 14.6223 17.4786C14.3106 17.3574 14.0264 17.1749 13.7865 16.9419C13.5466 16.7089 13.3559 16.4302 13.2257 16.1221C13.0955 15.8141 13.0284 15.4831 13.0284 15.1487C13.0284 14.8143 13.0955 14.4833 13.2257 14.1753C13.3559 13.8672 13.5466 13.5885 13.7865 13.3555C14.0264 13.1225 14.3106 12.94 14.6223 12.8188C14.934 12.6976 15.2668 12.6402 15.6011 12.6499H21.8708C22.5209 12.6689 23.138 12.9405 23.5912 13.407C24.0443 13.8735 24.2978 14.4983 24.2978 15.1487C24.2978 15.7991 24.0443 16.4238 23.5912 16.8904C23.138 17.3569 22.5209 17.6285 21.8708 17.6475H15.6011Z" fill="#6D7D93"/>
</g>
<defs>
<clipPath id="clip0">
<rect width="94.3009" height="24" fill="white" transform="translate(0.432617)"/>
</clipPath>
</defs>
</svg>
