<svg width="143" height="28" viewBox="0 0 143 28" fill="none" xmlns="http://www.w3.org/2000/svg">
<g clip-path="url(#clip0)">
<path d="M16.8961 5.26155L8.64823 10.5231L16.8961 15.7847L8.64823 21.0462L0.400391 15.7562L8.64823 10.4947L0.400391 5.26155L8.64823 0L16.8961 5.26155ZM8.60557 22.7384L16.8534 17.4769L25.1013 22.7384L16.8534 28L8.60557 22.7384ZM16.8961 15.7562L25.1439 10.4947L16.8961 5.26155L25.1013 0L33.3491 5.26155L25.1013 10.5231L33.3491 15.7847L25.1013 21.0462L16.8961 15.7562Z" fill="#6D7D93"/>
<path d="M39.8203 5.26158H46.4897C50.7416 5.26158 54.254 7.72171 54.254 13.3388V14.5191C54.254 20.1788 50.9691 22.7243 46.6177 22.7243H39.8203V5.26158ZM43.5461 8.43273V19.5389H46.4044C48.8218 19.5389 50.443 17.9604 50.443 14.448V13.5236C50.443 10.0112 48.7365 8.43273 46.2764 8.43273H43.5461ZM56.2307 8.60338H59.217L59.7005 11.8883C60.2693 9.65569 61.7198 8.46118 64.3505 8.46118H65.2749V12.2296H63.739C60.7101 12.2296 59.9706 13.2819 59.9706 16.2682V22.7669H56.2876V8.60338H56.2307ZM66.0143 15.9696V15.5714C66.0143 10.836 69.0433 8.24787 73.1672 8.24787C77.3764 8.24787 80.3201 10.836 80.3201 15.5714V15.9696C80.3201 20.6196 77.4618 23.1224 73.1672 23.1224C68.6024 23.0798 66.0143 20.6339 66.0143 15.9696ZM76.5516 15.9269V15.5714C76.5516 12.9406 75.2291 11.3621 73.1245 11.3621C71.0626 11.3621 69.6974 12.8126 69.6974 15.5714V15.9269C69.6974 18.4723 71.0199 19.9228 73.1245 19.9228C75.2291 19.8802 76.5516 18.4723 76.5516 15.9269ZM82.254 8.60338H85.3256L85.6812 11.2768C86.4206 9.48505 87.9991 8.24787 90.3312 8.24787C93.929 8.24787 96.3038 10.836 96.3038 15.6283V16.0264C96.3038 20.6765 93.673 23.1366 90.3312 23.1366C88.0986 23.1366 86.5628 22.127 85.8091 20.5059V27.6587H82.2114L82.254 8.60338ZM92.5638 15.9269V15.614C92.5638 12.7984 91.1133 11.4048 89.1794 11.4048C87.1174 11.4048 85.7523 12.9833 85.7523 15.614V15.8842C85.7523 18.387 87.0748 19.9655 89.1367 19.9655C91.2556 19.9228 92.5638 18.5719 92.5638 15.9269ZM101.75 20.1504L101.437 22.7385H98.2804V3.86798H101.878V11.1062C102.675 9.25752 104.253 8.24787 106.486 8.24787C109.87 8.29053 112.373 10.6227 112.373 15.3154V15.7563C112.373 20.449 109.998 23.1366 106.4 23.1366C104.025 23.0798 102.49 21.9848 101.75 20.1504ZM108.59 15.7563V15.4007C108.59 12.8126 107.182 11.3621 105.206 11.3621C103.186 11.3621 101.779 12.9833 101.779 15.4434V15.7563C101.779 18.387 103.144 19.9228 105.163 19.9228C107.325 19.9228 108.59 18.5719 108.59 15.7563ZM113.951 15.9696V15.5714C113.951 10.836 116.98 8.24787 121.104 8.24787C125.313 8.24787 128.257 10.836 128.257 15.5714V15.9696C128.257 20.6196 125.356 23.1224 121.104 23.1224C116.539 23.0798 113.951 20.6339 113.951 15.9696ZM124.517 15.9269V15.5714C124.517 12.9406 123.195 11.3621 121.09 11.3621C119.028 11.3621 117.663 12.8126 117.663 15.5714V15.9269C117.663 18.4723 118.985 19.9228 121.09 19.9228C123.209 19.8802 124.517 18.4723 124.517 15.9269ZM133.078 15.4007L128.115 8.60338H132.367L135.225 12.8553L138.126 8.60338H142.335L137.301 15.3581L142.605 22.7385H138.439L135.197 18.0457L132.04 22.7385H127.688L133.078 15.4007Z" fill="#6D7D93"/>
</g>
<defs>
<clipPath id="clip0">
<rect width="142.204" height="28" fill="white" transform="translate(0.400391)"/>
</clipPath>
</defs>
</svg>
