<svg width="223" height="50" viewBox="0 0 223 50" fill="none" xmlns="http://www.w3.org/2000/svg">
<path fill-rule="evenodd" clip-rule="evenodd" d="M178.893 21.2945C178.901 9.5413 169.376 0.00816717 157.623 5.24154e-06C145.87 -0.00815669 136.329 9.51682 136.329 21.27C136.329 29.1299 140.581 35.9941 146.915 39.6833L138.843 50L157.893 49.9429C157.893 49.9429 173.302 35.9941 175.082 33.4394C177.481 30.0033 178.885 25.8162 178.893 21.2945ZM157.86 13.3611C162.104 13.3611 165.532 16.7973 165.524 21.0415C165.524 25.2857 162.088 28.7137 157.852 28.7137C153.616 28.7137 150.18 25.2775 150.18 21.0333C150.18 16.7891 153.624 13.3611 157.86 13.3611ZM53.983 0.171406L53.9993 11.0676L37.9285 11.0921L37.9367 19.1724H47.078L47.0943 30.8848H37.9448L37.953 38.8508L53.0444 38.8345L53.0607 49.7307L36.2961 49.747V49.7225L24.445 49.7307L24.4287 30.8848H13.2468V41.4708L0.0571335 41.4871L0 8.65165L13.1978 8.64349L13.2305 19.1724H24.4205L24.396 0.236702L53.983 0.171406ZM60.6432 26.2896C57.2804 24.2899 54.9135 20.7231 54.938 14.365C54.9869 0.60398 62.8469 0.285665 70.7068 0.310151L93.3072 0.383608L93.1685 41.6258L78.6402 41.5769L78.681 28.4525L74.9102 28.4362L69.303 41.5442L53.8524 41.4953L60.6432 26.2896ZM78.73 17.3686L78.7463 11.5328L72.7963 11.5083C70.9354 11.5002 69.4825 11.6144 69.4744 14.414C69.4581 17.2135 70.919 17.3441 72.7718 17.3441L78.73 17.3686ZM114.585 0.448901C103.248 0.603978 94.1887 9.9249 94.3438 21.2618C94.507 32.5988 103.82 41.6585 115.165 41.5034C126.502 41.3483 135.562 32.0274 135.398 20.6905C135.235 9.34541 125.922 0.285662 114.585 0.448901ZM114.977 28.6157C110.757 28.6729 107.289 25.302 107.223 21.0823C107.166 16.8625 110.537 13.3937 114.757 13.3284C118.985 13.2713 122.445 16.6422 122.511 20.8619C122.568 25.0816 119.197 28.5586 114.977 28.6157ZM201.167 5.24154e-06C212.92 0.00816717 222.445 9.5413 222.437 21.2945C222.437 25.8162 221.025 30.0033 218.626 33.4394C216.846 35.9941 201.436 49.9429 201.436 49.9429L182.387 50L190.459 39.6833C184.125 35.9941 179.873 29.1299 179.873 21.27C179.873 9.51682 189.414 -0.00815669 201.167 5.24154e-06ZM209.076 21.0415C209.084 16.7973 205.656 13.3611 201.412 13.3611C197.168 13.3611 193.732 16.7891 193.732 21.0333C193.732 25.2775 197.168 28.7137 201.404 28.7137C205.64 28.7137 209.076 25.2857 209.076 21.0415Z" fill="#352F36"/>
</svg>
