<svg width="272" height="50" viewBox="0 0 272 50" fill="none" xmlns="http://www.w3.org/2000/svg">
<path d="M27.7246 18.4725C27.7246 24.6989 24.7334 28.916 17.1581 28.916H14.7645V9.0862C15.6154 9.03777 16.4101 9.03777 17.1581 9.03777C24.3309 9.03709 27.7246 12.45 27.7246 18.4725ZM19.9488 37.55C33.503 37.55 42.0729 30.5201 42.0729 18.274C42.0722 4.81796 32.9041 0 17.9555 0C12.1744 0 5.19804 0.40036 0.216309 1.00261V48.9981H14.7652V37.55H19.9488ZM214.881 18.4725C214.881 24.6989 211.893 28.916 204.316 28.916H201.931V9.0862C202.774 9.03777 203.57 9.03777 204.316 9.03777C211.49 9.03709 214.881 12.45 214.881 18.4725ZM207.114 37.55C220.657 37.55 229.232 30.5201 229.232 18.274C229.232 4.81796 220.065 0 205.115 0C199.335 0 192.355 0.40036 187.372 1.00261V48.9981H201.929V37.55H207.114ZM248.164 13.2514C248.164 10.6419 250.758 9.4354 254.94 9.4354C259.526 9.4354 264.512 10.4401 267.898 11.8512L266.703 1.40569C262.914 0.602245 259.526 0 253.349 0C241.588 0 233.618 4.67064 233.618 14.46C233.618 31.3236 256.343 27.9127 256.343 35.7439C256.343 38.7531 254.148 40.3586 248.763 40.3586C243.987 40.3586 236.607 38.7531 232.223 36.5453L233.822 47.5931C238.202 49.1993 244.182 50 248.967 50C261.122 50 271.09 45.9828 271.09 33.9324C271.09 17.8737 248.164 20.8828 248.164 13.2514ZM176.414 1.00261H161.865V48.9981H176.414V1.00261ZM117.415 1.00261H102.864V48.9981H117.415V1.00261ZM142.728 39.356V1.00261H128.178V48.9981H154.49L156.68 39.356H142.728ZM92.1022 1.00261H77.552V20.0794H62.4036V1.00261H47.8507V48.9981H62.4029V30.1198H77.5513V48.9981H92.1015L92.1022 1.00261Z" fill="#352F36"/>
</svg>
