<svg width="72" height="72" viewBox="0 0 72 72" fill="none" xmlns="http://www.w3.org/2000/svg">
<path d="M18.504 54.347L14.6472 51.0093C17.0701 48.8831 19.0232 46.8558 20.5066 44.9274C22.0395 42.9496 23.0037 41.4662 23.3992 40.4772C23.7948 39.4883 24.1657 38.3016 24.5118 36.9171L24.2151 36.3979C20.9022 36.3979 18.4793 35.6809 16.9465 34.247C15.4136 32.813 14.6472 30.6127 14.6472 27.6459C14.6472 25.3219 15.4631 23.2204 17.0948 21.3415C18.776 19.4625 20.8527 18.523 23.3251 18.523C26.193 18.523 28.5417 19.3142 30.3712 20.8965C32.2501 22.4787 33.1896 25.0252 33.1896 28.5359C33.1896 33.1344 31.731 37.9307 28.8136 42.9248C25.9457 47.8695 22.5092 51.6769 18.504 54.347ZM43.5099 54.347L39.6531 51.0093C42.0759 48.8831 44.0291 46.8558 45.5125 44.9274C47.0453 42.9496 48.0095 41.4662 48.4051 40.4772C48.8006 39.4883 49.1715 38.3016 49.5176 36.9171L49.2209 36.3979C45.908 36.3979 43.4852 35.6809 41.9523 34.247C40.4195 32.813 39.6531 30.6127 39.6531 27.6459C39.6531 25.3219 40.4689 23.2204 42.1007 21.3415C43.7818 19.4625 45.8586 18.523 48.3309 18.523C51.1988 18.523 53.5475 19.3142 55.377 20.8965C57.256 22.4787 58.1955 25.0252 58.1955 28.5359C58.1955 33.1344 56.7368 37.9307 53.8195 42.9248C50.9516 47.8695 47.515 51.6769 43.5099 54.347Z" fill="white"/>
</svg>
