<svg width="279" height="50" viewBox="0 0 279 50" fill="none" xmlns="http://www.w3.org/2000/svg">
<path fill-rule="evenodd" clip-rule="evenodd" d="M19.7151 14.7737L10.5321 6.05778C10.3328 5.86893 10.4708 5.53483 10.7621 5.53483H19.1479C19.3319 5.53483 19.4698 5.38956 19.4698 5.22976V0.3053C19.4698 0.130982 19.3165 0.000244141 19.1479 0.000244141H0.321943C0.137975 0.000244141 0 0.145509 0 0.3053V18.1438C0 18.3181 0.153306 18.4489 0.321943 18.4489H5.51901C5.70298 18.4489 5.84095 18.3036 5.84095 18.1438V10.1978C5.84095 9.92181 6.19356 9.79108 6.39285 9.97993L14.4721 17.6354C15.8825 18.9718 16.6644 20.7731 16.6644 22.647V29.0096C16.6644 29.1838 16.8176 29.3146 16.9863 29.3146H22.1834C22.3673 29.3146 22.5053 29.1693 22.5053 29.0096V21.1508C22.5053 18.7539 21.5088 16.4587 19.7151 14.7737Z" fill="#352F36"/>
<path d="M73.6651 49.2447L59.4996 27.8619C65.9232 26.2639 70.3384 20.5259 70.3384 14.1633C70.3384 6.07207 63.4088 0 53.4746 0H32.9623L32.9931 49.2447H41.0263V29.3144H51.1752L64.3134 49.2447H73.6651ZM62.2438 14.4393C62.2438 18.8699 58.4878 22.3998 53.1528 22.3998H41.0263L40.9955 7.11796H53.9194C58.8865 7.11796 62.2438 10.2121 62.2438 14.4393Z" fill="#352F36"/>
<path d="M110.686 30.6361C110.686 20.0464 104.109 13.2626 94.1133 13.2626C83.52 13.2626 76.2992 20.7292 76.2992 31.8709C76.2992 43.0128 83.2287 50 93.8221 50C102.223 50 108.493 45.5695 110.318 38.8581H103.526C102.131 42.1121 99.0038 43.9133 94.4046 43.9133C87.6899 43.9133 83.52 40.1076 83.52 33.6724H110.686V30.6216V30.6361ZM93.96 19.3637C99.8009 19.3637 103.312 22.821 103.312 28.3557H83.5966C84.1025 22.821 88.1192 19.3637 93.96 19.3637Z" fill="#352F36"/>
<path d="M136.71 42.953H132.984C129.703 42.953 128.171 41.5731 128.171 38.4498V20.3209H135.836V13.9583H128.171V3.51379L120.428 5.44581V13.9583H113.346V20.3209H120.428V38.1738C120.428 46.4105 123.418 49.243 131.528 49.243H136.71V42.953Z" fill="#352F36"/>
<path d="M175.472 26.4086C175.472 17.8235 170.873 13.2622 162.472 13.2622C156.922 13.2622 153.641 15.0635 151.081 19.4941V0.0576782H143.339V49.2442H151.081V30.3599C151.081 23.7939 154.653 19.7701 160.433 19.7701C165.032 19.7701 167.807 22.6754 167.807 27.1786V49.2442H175.472V26.4086Z" fill="#352F36"/>
<path d="M184.722 8.44018H192.464V0.000305176H184.722V8.44018ZM184.722 49.245H192.464V13.9602H184.722V49.245Z" fill="#352F36"/>
<path d="M234.275 26.4089C234.275 17.8239 229.676 13.2626 221.275 13.2626C215.802 13.2626 212.444 15.0639 209.884 19.2184V13.9598H202.142V49.2445H209.884V30.3601C209.884 23.7943 213.456 19.7704 219.236 19.7704C223.835 19.7704 226.61 22.6757 226.61 27.1789V49.2445H234.275V26.4089Z" fill="#352F36"/>
<path d="M278.127 49.2442L262.274 29.1831L277.238 13.9595H267.013L251.528 30.6359V0.0576782H243.787V49.2442H251.528V40.0491L257.156 34.3691L268.913 49.2442H278.112H278.127Z" fill="#352F36"/>
</svg>
