<svg width="48" height="49" viewBox="0 0 48 49" fill="none" xmlns="http://www.w3.org/2000/svg">
<path d="M44.016 20.044C44.112 20.428 44.096 20.796 43.968 21.148C43.84 21.5 43.632 21.804 43.344 22.06L35.088 30.076L37.104 41.452C37.168 41.836 37.12 42.204 36.96 42.556C36.832 42.908 36.592 43.196 36.24 43.42C35.92 43.676 35.552 43.804 35.136 43.804C34.784 43.804 34.464 43.724 34.176 43.564L24 38.236L13.776 43.564C13.424 43.756 13.056 43.836 12.672 43.804C12.288 43.772 11.936 43.644 11.616 43.42C11.328 43.196 11.104 42.892 10.944 42.508C10.816 42.156 10.784 41.788 10.848 41.404L12.864 30.076L4.608 22.06C4.352 21.804 4.176 21.5 4.08 21.148C3.984 20.764 3.984 20.396 4.08 20.044C4.208 19.692 4.416 19.404 4.704 19.18C4.992 18.924 5.328 18.764 5.712 18.7L17.088 17.02L22.224 6.7C22.384 6.348 22.624 6.076 22.944 5.884C23.296 5.692 23.648 5.596 24 5.596C24.384 5.596 24.736 5.692 25.056 5.884C25.408 6.076 25.664 6.348 25.824 6.7L30.912 17.02L42.288 18.7C42.672 18.732 43.024 18.876 43.344 19.132C43.664 19.356 43.888 19.66 44.016 20.044ZM31.68 28.06L37.68 22.06L29.28 20.86C28.96 20.828 28.656 20.716 28.368 20.524C28.112 20.3 27.904 20.044 27.744 19.756L24 12.076L20.448 19.708C20.288 19.996 20.064 20.252 19.776 20.476C19.52 20.668 19.232 20.78 18.912 20.812L10.512 22.06L16.512 28.06C16.992 28.54 17.184 29.116 17.088 29.788L15.648 38.188L23.136 34.204C23.776 33.884 24.416 33.884 25.056 34.204L32.544 38.188L31.104 29.788C31.008 29.116 31.2 28.54 31.68 28.06Z" fill="#443FDE"/>
</svg>
