<svg width="156" height="50" viewBox="0 0 156 50" fill="none" xmlns="http://www.w3.org/2000/svg">
<path fill-rule="evenodd" clip-rule="evenodd" d="M0.0212953 12.2638C0.0199059 13.5508 0.0185163 14.8378 0.0185163 16.125C0.0185163 17.5895 0.0162465 19.054 0.0139767 20.5185C0.00861176 23.98 0.0032468 27.4415 0.0278547 30.903C0.0535352 34.2018 1.38425 36.8399 4.32117 38.4998C7.8861 40.5122 11.6121 40.2367 15.3778 39.1511C15.8619 39.0122 15.8564 38.6893 15.8507 38.3482C15.85 38.3109 15.8494 38.2735 15.8494 38.236C15.8501 37.6733 15.8471 37.1101 15.844 36.5468C15.8371 35.2871 15.8303 34.0266 15.8657 32.7684C15.8891 31.8976 15.5809 31.9139 14.9132 32.1684L14.8507 32.1922L14.8506 32.1922C13.5734 32.6793 12.2944 33.1671 10.9047 33.282C8.30399 33.4968 6.92191 32.2734 6.92191 29.6937C6.92191 28.4701 6.92345 27.2465 6.92498 26.0229C6.92943 22.4747 6.93388 18.9269 6.9009 15.3803C6.89156 14.5002 7.13669 14.2574 8.0075 14.2854C9.12471 14.3223 10.2427 14.3168 11.361 14.3113H11.361C12.2243 14.3071 13.0879 14.3028 13.9514 14.3181C14.5724 14.3274 14.8525 14.22 14.8292 13.5103C14.7778 11.8434 14.7848 10.1742 14.8268 8.50726C14.8409 7.88393 14.6354 7.72751 14.0378 7.73685C13.1414 7.75006 12.2446 7.7469 11.348 7.74374H11.3479C10.1848 7.73965 9.02185 7.73556 7.86042 7.7672C7.07366 7.78821 6.88689 7.5314 6.90557 6.78667C6.93091 5.76464 6.92756 4.74198 6.92421 3.71935V3.71934V3.71934V3.71933V3.71932V3.71931V3.71931V3.7193V3.71929V3.71929V3.71928V3.71927V3.71926V3.71926V3.71925V3.71924V3.71924V3.71923V3.71922V3.71921V3.71921V3.7192V3.71919V3.71919V3.71918V3.71917V3.71916V3.71916V3.71915V3.71914V3.71914V3.71913V3.71912V3.71911V3.71911C6.92108 2.76325 6.91795 1.80742 6.93825 0.852129C6.95226 0.177431 6.73748 -0.00233255 6.08379 0.0140096C4.41456 0.0560323 2.74065 0.086382 1.07375 0.00467123C0.160926 -0.0396861 -0.00716423 0.27315 -0.000160446 1.1136C0.0293212 4.83003 0.0253088 8.54645 0.0212953 12.2638ZM40.8319 38.6095C42.1533 38.1823 42.4475 36.2282 42.4475 36.2282L42.4428 31.5777C42.4428 31.5777 42.2467 30.8213 41.7051 31.0734C41.5077 31.1648 41.3069 31.2459 41.1059 31.3271L41.1055 31.3272C41.019 31.3622 40.9324 31.3971 40.846 31.433C37.274 32.9108 33.6087 33.7279 29.738 32.8944C27.5248 32.4182 25.9863 31.1201 25.2415 28.963C24.2657 26.1404 24.2563 23.2479 24.805 20.3623C25.4983 16.7134 27.2843 15.0908 30.9473 14.5982C32.222 14.4255 33.4967 14.4815 34.7783 14.6239C37.1993 14.8947 39.4522 15.7352 41.6981 16.5943C42.2631 16.8091 42.4475 16.725 42.4405 16.0994C42.4148 14.199 42.4078 12.2986 42.4452 10.3983C42.4568 9.79362 42.13 9.59518 41.6654 9.42475C38.0118 8.08236 34.2554 7.45669 30.359 7.74851C24.5552 8.18508 20.2058 11.4979 18.5319 17.0215C17.1288 21.6534 17.1568 26.3622 18.63 30.9754C20.1778 35.8197 23.5653 38.7192 28.5707 39.6834C32.7543 40.4889 36.8094 39.9076 40.8319 38.6095ZM45.4909 28.9038C45.5059 30.5975 45.52 32.2095 45.4894 33.6882L45.4848 33.6929C45.4848 35.1225 45.4858 36.4958 45.4869 37.8269L45.4871 38.0948L45.4871 38.1102C45.4901 41.9776 45.4929 45.4944 45.4707 49.0125C45.4661 49.7572 46.4419 50 46.4419 50L51.1018 50.0047C51.1018 50.0047 52.3601 49.8132 52.3391 48.8164C52.3064 47.2265 52.3106 45.636 52.3147 44.0458V44.0457V44.0456V44.0455V44.0454V44.0453V44.0453V44.0452V44.0451V44.045V44.0449V44.0448V44.0447V44.0446V44.0445V44.0444V44.0443V44.0442V44.0442V44.0441V44.044V44.0439V44.0438V44.0437V44.0436V44.0435V44.0434V44.0433V44.0432V44.0431V44.0431V44.043V44.0429V44.0428V44.0427C52.3187 42.4536 52.3228 40.8648 52.2901 39.2772C52.2714 38.3667 52.5656 38.2173 53.3966 38.2173C54.2062 38.2149 55.0159 38.2243 55.8256 38.2336C58.1591 38.2606 60.4927 38.2876 62.8237 38.0329C68.4011 37.4212 72.2765 34.2111 73.6422 28.8112C74.6858 24.686 74.6719 20.5047 73.5232 16.4005C72.3419 12.1796 69.6594 9.31736 65.3568 8.13139C61.8059 7.15319 58.22 7.15553 54.6643 8.06135C51.3912 8.89713 48.8652 10.7882 47.308 13.8208C46.2528 15.8752 45.7112 18.0954 45.5922 20.3997C45.4415 23.3022 45.4671 26.2066 45.4909 28.9038ZM52.3291 23.6825C52.3342 24.272 52.3391 24.8396 52.3181 25.3747C52.3181 25.9376 52.3192 26.4745 52.3203 26.9927L52.3204 27.0181V27.0185V27.0189V27.0193V27.0197V27.0201V27.0204V27.0208V27.0212V27.0215V27.0219V27.0222V27.0225V27.0229V27.0232V27.0235V27.0238V27.0241V27.0244V27.0247V27.025V27.0252V27.0255V27.0258V27.026V27.0263V27.0265V27.0268V27.027V27.0272V27.0275V27.0277V27.0279V27.0281C52.323 28.3335 52.3255 29.5208 52.3087 30.7069C52.3018 31.2345 52.4256 31.468 53.0161 31.461C53.9927 31.4503 54.9702 31.4586 55.9478 31.4669H55.9478H55.9479H55.9479H55.948H55.9481H55.9481H55.9482H55.9482H55.9483H55.9483H55.9484H55.9485H55.9485H55.9486H55.9486H55.9487H55.9487H55.9488H55.9489H55.9489H55.949H55.949H55.9491H55.9491H55.9492H55.9493H55.9493H55.9494H55.9494H55.9495H55.9495H55.9496H55.9497H55.9497C57.5376 31.4804 59.1253 31.4939 60.7086 31.426C64.5911 31.2602 66.5125 29.7287 67.2012 26.3459C67.7007 23.8899 67.6424 21.4246 67.124 18.9639C66.6035 16.4939 65.0977 15.0511 62.6674 14.4815C61.0144 14.0939 59.3358 14.0846 57.6947 14.3694C54.5709 14.911 53.1679 16.4285 52.5725 19.5569C52.3057 20.9619 52.3179 22.3746 52.3291 23.68L52.3291 23.6825ZM84.5305 20.3249C84.5307 21.2939 84.5309 22.2627 84.5309 23.2315C84.5309 24.0973 84.5307 24.9631 84.5306 25.8289V25.8291V25.8292C84.5299 29.7312 84.5292 33.6342 84.5426 37.5356C84.5426 37.6176 84.5311 37.7079 84.5194 37.8001V37.8002V37.8002C84.4711 38.1809 84.4186 38.5946 85.1496 38.5908C85.8715 38.5869 85.8425 38.1748 85.8142 37.772C85.8087 37.6942 85.8032 37.6167 85.8032 37.5426C85.8079 27.9467 85.8079 18.3485 85.8079 8.75034V8.70337C85.8079 8.64121 85.8102 8.57852 85.8125 8.51651C85.8282 8.0917 85.8427 7.69839 85.1052 7.72284C84.4339 7.74546 84.4784 8.11228 84.5204 8.45796C84.5304 8.54027 84.5402 8.62138 84.5402 8.69636C84.529 12.5718 84.5298 16.4488 84.5305 20.3249ZM152.919 37.0927C152.605 37.0927 152.326 37.0383 152.081 36.9297C151.836 36.8189 151.642 36.6559 151.5 36.4407C151.359 36.2234 151.289 35.9528 151.289 35.6289C151.289 35.3562 151.339 35.1271 151.439 34.9418C151.539 34.7564 151.675 34.6072 151.848 34.4943C152.021 34.3814 152.217 34.2962 152.436 34.2386C152.658 34.1811 152.89 34.1406 153.133 34.1172C153.418 34.0874 153.648 34.0597 153.823 34.0341C153.998 34.0064 154.125 33.9659 154.204 33.9126C154.282 33.8594 154.322 33.7805 154.322 33.6761V33.657C154.322 33.4545 154.258 33.2979 154.13 33.1871C154.004 33.0763 153.825 33.021 153.593 33.021C153.348 33.021 153.153 33.0753 153.008 33.1839C152.863 33.2905 152.767 33.4247 152.721 33.5866L151.461 33.4844C151.525 33.1861 151.651 32.9283 151.838 32.7109C152.026 32.4915 152.268 32.3232 152.564 32.206C152.862 32.0866 153.207 32.027 153.599 32.027C153.872 32.027 154.133 32.0589 154.382 32.1229C154.634 32.1868 154.857 32.2859 155.05 32.4201C155.246 32.5543 155.401 32.7269 155.514 32.9379C155.627 33.1467 155.683 33.397 155.683 33.6889V37H154.392V36.3192H154.354C154.275 36.4727 154.169 36.608 154.037 36.7251C153.905 36.8402 153.746 36.9308 153.561 36.9968C153.376 37.0607 153.162 37.0927 152.919 37.0927ZM153.309 36.153C153.509 36.153 153.686 36.1136 153.839 36.0348C153.993 35.9538 154.113 35.8452 154.2 35.7088C154.288 35.5724 154.331 35.418 154.331 35.2454V34.7244C154.289 34.7521 154.23 34.7777 154.156 34.8011C154.083 34.8224 154.001 34.8427 153.909 34.8619C153.818 34.8789 153.726 34.8949 153.635 34.9098L153.497 34.9291L153.385 34.945C153.226 34.9684 153.086 35.0057 152.967 35.0568C152.847 35.108 152.755 35.1772 152.689 35.2646C152.623 35.3498 152.59 35.4563 152.59 35.5842C152.59 35.7695 152.657 35.9112 152.791 36.0092C152.927 36.1051 153.1 36.153 153.309 36.153ZM153.162 31.4581L153.839 30.0039H155.098L154.124 31.4581H153.162ZM149.068 32.0909V34.9098C149.07 35.1293 149.027 35.3136 148.937 35.4627C148.85 35.6119 148.735 35.7248 148.592 35.8015C148.449 35.8761 148.296 35.9134 148.132 35.9134C147.874 35.9134 147.668 35.8292 147.515 35.6609C147.362 35.4925 147.284 35.2635 147.282 34.9737V32.0909H145.92V35.2166C145.922 35.6001 145.993 35.9293 146.131 36.2042C146.272 36.479 146.467 36.6911 146.716 36.8402C146.965 36.9893 147.254 37.0639 147.582 37.0639C147.951 37.0639 148.263 36.9766 148.519 36.8018C148.776 36.6271 148.961 36.396 149.071 36.1083H149.123V37H150.43V32.0909H149.068ZM142.437 38.9432C141.995 38.9432 141.617 38.8825 141.302 38.761C140.989 38.6417 140.739 38.4787 140.554 38.272C140.369 38.0653 140.248 37.8331 140.193 37.5753L141.452 37.4059C141.49 37.5039 141.551 37.5955 141.634 37.6808C141.717 37.766 141.827 37.8342 141.964 37.8853C142.102 37.9386 142.27 37.9652 142.468 37.9652C142.765 37.9652 143.009 37.8928 143.2 37.7479C143.394 37.6051 143.491 37.3654 143.491 37.0288V36.1307H143.434C143.374 36.267 143.285 36.396 143.165 36.5174C143.046 36.6389 142.892 36.7379 142.705 36.8146C142.517 36.8913 142.294 36.9297 142.034 36.9297C141.665 36.9297 141.33 36.8445 141.027 36.674C140.727 36.5014 140.487 36.2383 140.308 35.8846C140.131 35.5288 140.043 35.0792 140.043 34.5359C140.043 33.9798 140.133 33.5153 140.314 33.1424C140.495 32.7695 140.736 32.4904 141.037 32.305C141.339 32.1197 141.671 32.027 142.031 32.027C142.305 32.027 142.536 32.0739 142.721 32.1676C142.906 32.2592 143.055 32.3743 143.168 32.5128C143.283 32.6491 143.372 32.7834 143.434 32.9155H143.485V32.0909H144.837V37.0479C144.837 37.4656 144.734 37.815 144.53 38.0962C144.325 38.3775 144.042 38.5884 143.68 38.7291C143.32 38.8718 142.905 38.9432 142.437 38.9432ZM142.465 35.907C142.685 35.907 142.87 35.8526 143.021 35.744C143.175 35.6332 143.292 35.4755 143.373 35.271C143.456 35.0643 143.498 34.8171 143.498 34.5295C143.498 34.2418 143.457 33.9925 143.376 33.7816C143.295 33.5685 143.178 33.4034 143.025 33.2862C142.871 33.169 142.685 33.1104 142.465 33.1104C142.242 33.1104 142.053 33.1712 141.9 33.2926C141.746 33.4119 141.63 33.5781 141.551 33.7912C141.472 34.0043 141.433 34.2504 141.433 34.5295C141.433 34.8129 141.472 35.0579 141.551 35.2646C141.632 35.4691 141.748 35.6278 141.9 35.7408C142.053 35.8516 142.242 35.907 142.465 35.907ZM135.567 36.9297C135.812 37.0384 136.091 37.0927 136.404 37.0927C136.647 37.0927 136.861 37.0607 137.046 36.9968C137.232 36.9308 137.391 36.8402 137.523 36.7251C137.655 36.608 137.76 36.4727 137.839 36.3192H137.877V37H139.169V33.6889C139.169 33.397 139.112 33.1467 138.999 32.9379C138.886 32.7269 138.732 32.5543 138.536 32.4201C138.342 32.2859 138.119 32.1868 137.868 32.1229C137.619 32.059 137.358 32.027 137.085 32.027C136.693 32.027 136.348 32.0867 136.049 32.206C135.753 32.3232 135.511 32.4915 135.324 32.7109C135.136 32.9283 135.011 33.1861 134.947 33.4844L136.206 33.5867C136.253 33.4247 136.349 33.2905 136.494 33.1839C136.638 33.0753 136.833 33.021 137.078 33.021C137.311 33.021 137.49 33.0764 137.615 33.1871C137.743 33.2979 137.807 33.4545 137.807 33.657V33.6761C137.807 33.7805 137.768 33.8594 137.689 33.9126C137.61 33.9659 137.483 34.0064 137.309 34.0341C137.134 34.0597 136.904 34.0874 136.618 34.1172C136.375 34.1406 136.143 34.1811 135.921 34.2386C135.702 34.2962 135.506 34.3814 135.333 34.4943C135.161 34.6072 135.024 34.7564 134.924 34.9418C134.824 35.1271 134.774 35.3562 134.774 35.6289C134.774 35.9528 134.844 36.2234 134.985 36.4407C135.128 36.6559 135.322 36.8189 135.567 36.9297ZM137.325 36.0348C137.171 36.1136 136.994 36.1531 136.794 36.1531C136.585 36.1531 136.413 36.1051 136.276 36.0092C136.142 35.9112 136.075 35.7695 136.075 35.5842C136.075 35.4563 136.108 35.3498 136.174 35.2646C136.24 35.1772 136.333 35.108 136.452 35.0568C136.571 35.0057 136.711 34.9684 136.871 34.945L136.978 34.9297L137.12 34.9098C137.212 34.8949 137.303 34.8789 137.395 34.8619C137.486 34.8427 137.568 34.8224 137.641 34.8011C137.715 34.7777 137.774 34.7521 137.817 34.7244V35.2454C137.817 35.418 137.773 35.5724 137.686 35.7088C137.598 35.8452 137.478 35.9538 137.325 36.0348ZM130.767 34.1619V37H129.406V32.0909H130.703V32.957H130.761C130.869 32.6715 131.052 32.4457 131.307 32.2795C131.563 32.1112 131.873 32.027 132.237 32.027C132.578 32.027 132.875 32.1016 133.129 32.2507C133.382 32.3999 133.58 32.6129 133.72 32.8899C133.861 33.1648 133.931 33.4929 133.931 33.8743V37H132.57V34.1172C132.572 33.8168 132.495 33.5824 132.34 33.4141C132.184 33.2436 131.97 33.1584 131.697 33.1584C131.514 33.1584 131.352 33.1978 131.211 33.2766C131.073 33.3555 130.964 33.4705 130.885 33.6218C130.809 33.771 130.769 33.951 130.767 34.1619ZM124.747 36.9297C124.992 37.0384 125.272 37.0927 125.585 37.0927C125.828 37.0927 126.042 37.0607 126.227 36.9968C126.412 36.9308 126.571 36.8402 126.703 36.7251C126.835 36.608 126.941 36.4727 127.02 36.3192H127.058V37H128.349V33.6889C128.349 33.397 128.293 33.1467 128.18 32.9379C128.067 32.7269 127.912 32.5543 127.716 32.4201C127.523 32.2859 127.3 32.1868 127.048 32.1229C126.799 32.059 126.538 32.027 126.265 32.027C125.873 32.027 125.528 32.0867 125.23 32.206C124.934 32.3232 124.692 32.4915 124.504 32.7109C124.317 32.9283 124.191 33.1861 124.127 33.4844L125.387 33.5867C125.433 33.4247 125.529 33.2905 125.674 33.1839C125.819 33.0753 126.014 33.021 126.259 33.021C126.491 33.021 126.67 33.0764 126.796 33.1871C126.924 33.2979 126.988 33.4545 126.988 33.657V33.6761C126.988 33.7805 126.948 33.8594 126.87 33.9126C126.791 33.9659 126.664 34.0064 126.489 34.0341C126.314 34.0597 126.084 34.0874 125.799 34.1172C125.556 34.1406 125.324 34.1811 125.102 34.2386C124.883 34.2962 124.687 34.3814 124.514 34.4943C124.341 34.6072 124.205 34.7564 124.105 34.9418C124.005 35.1271 123.955 35.3562 123.955 35.6289C123.955 35.9528 124.025 36.2234 124.166 36.4407C124.308 36.6559 124.502 36.8189 124.747 36.9297ZM126.505 36.0348C126.352 36.1136 126.175 36.1531 125.975 36.1531C125.766 36.1531 125.593 36.1051 125.457 36.0092C125.323 35.9112 125.256 35.7695 125.256 35.5842C125.256 35.4563 125.289 35.3498 125.355 35.2646C125.421 35.1772 125.513 35.108 125.633 35.0568C125.752 35.0057 125.892 34.9684 126.051 34.945L126.185 34.926L126.301 34.9098C126.392 34.8949 126.484 34.8789 126.575 34.8619C126.667 34.8427 126.749 34.8224 126.822 34.8011C126.896 34.7777 126.955 34.7521 126.997 34.7244V35.2454C126.997 35.418 126.954 35.5724 126.866 35.7088C126.779 35.8452 126.659 35.9538 126.505 36.0348ZM120.643 37V32.0909H121.963V32.9474H122.014C122.103 32.6428 122.254 32.4126 122.465 32.2571C122.676 32.0994 122.918 32.0206 123.193 32.0206C123.261 32.0206 123.335 32.0249 123.414 32.0334C123.493 32.0419 123.562 32.0536 123.622 32.0685V33.2766C123.558 33.2575 123.469 33.2404 123.356 33.2255C123.243 33.2106 123.14 33.2031 123.046 33.2031C122.846 33.2031 122.667 33.2468 122.509 33.3342C122.354 33.4194 122.23 33.5387 122.139 33.6921C122.049 33.8455 122.004 34.0224 122.004 34.2227V37H120.643ZM115.985 36.9297C116.23 37.0384 116.509 37.0927 116.822 37.0927C117.065 37.0927 117.279 37.0607 117.464 36.9968C117.65 36.9308 117.809 36.8402 117.941 36.7251C118.073 36.608 118.178 36.4727 118.257 36.3192H118.295V37H119.587V33.6889C119.587 33.397 119.53 33.1467 119.417 32.9379C119.304 32.7269 119.15 32.5543 118.954 32.4201C118.76 32.2859 118.537 32.1868 118.286 32.1229C118.037 32.059 117.776 32.027 117.503 32.027C117.111 32.027 116.766 32.0867 116.467 32.206C116.171 32.3232 115.929 32.4915 115.742 32.7109C115.554 32.9283 115.429 33.1861 115.365 33.4844L116.624 33.5867C116.671 33.4247 116.767 33.2905 116.912 33.1839C117.056 33.0753 117.251 33.021 117.496 33.021C117.729 33.021 117.908 33.0764 118.033 33.1871C118.161 33.2979 118.225 33.4545 118.225 33.657V33.6761C118.225 33.7805 118.186 33.8594 118.107 33.9126C118.028 33.9659 117.901 34.0064 117.727 34.0341C117.552 34.0597 117.322 34.0874 117.036 34.1172C116.793 34.1406 116.561 34.1811 116.339 34.2386C116.12 34.2962 115.924 34.3814 115.751 34.4943C115.579 34.6072 115.442 34.7564 115.342 34.9418C115.242 35.1271 115.192 35.3562 115.192 35.6289C115.192 35.9528 115.262 36.2234 115.403 36.4407C115.546 36.6559 115.74 36.8189 115.985 36.9297ZM117.742 36.0348C117.589 36.1136 117.412 36.1531 117.212 36.1531C117.003 36.1531 116.831 36.1051 116.694 36.0092C116.56 35.9112 116.493 35.7695 116.493 35.5842C116.493 35.4563 116.526 35.3498 116.592 35.2646C116.658 35.1772 116.751 35.108 116.87 35.0568C116.989 35.0057 117.129 34.9684 117.289 34.945C117.363 34.9343 117.446 34.9226 117.538 34.9098C117.63 34.8949 117.721 34.8789 117.813 34.8619C117.904 34.8427 117.986 34.8224 118.059 34.8011C118.133 34.7777 118.192 34.7521 118.235 34.7244V35.2454C118.235 35.418 118.191 35.5724 118.104 35.7088C118.016 35.8452 117.896 35.9538 117.742 36.0348ZM109.727 38.8409V32.0909H111.069V32.9155H111.13C111.19 32.7834 111.276 32.6491 111.389 32.5128C111.504 32.3743 111.653 32.2592 111.836 32.1676C112.022 32.0739 112.252 32.027 112.527 32.027C112.885 32.027 113.215 32.1207 113.517 32.3082C113.82 32.4936 114.062 32.7738 114.243 33.1488C114.424 33.5217 114.514 33.9893 114.514 34.5518C114.514 35.0994 114.426 35.5618 114.249 35.9389C114.074 36.3139 113.836 36.5984 113.533 36.7923C113.233 36.984 112.896 37.0799 112.523 37.0799C112.259 37.0799 112.034 37.0362 111.849 36.9489C111.666 36.8615 111.516 36.7518 111.398 36.6197C111.281 36.4854 111.192 36.3501 111.13 36.2138H111.088V38.8409H109.727ZM111.06 34.5455C111.06 34.8374 111.1 35.092 111.181 35.3093C111.262 35.5266 111.379 35.696 111.533 35.8175C111.686 35.9368 111.872 35.9964 112.092 35.9964C112.313 35.9964 112.501 35.9357 112.654 35.8143C112.808 35.6907 112.924 35.5202 113.003 35.3029C113.084 35.0835 113.124 34.831 113.124 34.5455C113.124 34.2621 113.085 34.0128 113.006 33.7976C112.927 33.5824 112.811 33.4141 112.658 33.2926C112.504 33.1712 112.316 33.1104 112.092 33.1104C111.87 33.1104 111.683 33.169 111.529 33.2862C111.378 33.4034 111.262 33.5696 111.181 33.7848C111.1 34 111.06 34.2536 111.06 34.5455ZM103.198 36.7891C103.563 36.9936 103.997 37.0959 104.502 37.0959C104.907 37.0959 105.264 37.0341 105.573 36.9105C105.884 36.7848 106.137 36.6101 106.334 36.3864C106.532 36.1605 106.663 35.8963 106.727 35.5938L105.467 35.5107C105.421 35.6342 105.352 35.7386 105.263 35.8239C105.173 35.9091 105.066 35.973 104.94 36.0156C104.814 36.0582 104.676 36.0795 104.525 36.0795C104.297 36.0795 104.099 36.0316 103.933 35.9357C103.767 35.8398 103.638 35.7035 103.547 35.5266C103.457 35.3498 103.412 35.1399 103.412 34.897V34.8938H106.755V34.5199C106.755 34.1023 106.697 33.7379 106.58 33.4268C106.462 33.1136 106.298 32.8537 106.087 32.647C105.879 32.4403 105.634 32.2859 105.352 32.1836C105.073 32.0792 104.772 32.027 104.448 32.027C103.966 32.027 103.547 32.1335 103.189 32.3466C102.833 32.5597 102.557 32.8569 102.361 33.2383C102.165 33.6197 102.067 34.0629 102.067 34.5678C102.067 35.0856 102.165 35.5341 102.361 35.9134C102.557 36.2905 102.836 36.5824 103.198 36.7891ZM103.414 34.0501C103.422 33.8738 103.467 33.7129 103.55 33.5675C103.639 33.4077 103.763 33.2809 103.921 33.1871C104.08 33.0913 104.264 33.0433 104.47 33.0433C104.668 33.0433 104.842 33.087 104.991 33.1744C105.142 33.2596 105.261 33.3778 105.346 33.5291C105.431 33.6804 105.474 33.854 105.474 34.0501H103.414ZM98.3522 37.0799C97.9794 37.0799 97.6417 36.984 97.3391 36.7923C97.0387 36.5984 96.8 36.3139 96.6232 35.9389C96.4485 35.5618 96.3611 35.0994 96.3611 34.5518C96.3611 33.9893 96.4517 33.5217 96.6328 33.1488C96.8139 32.7738 97.0547 32.4936 97.3551 32.3082C97.6576 32.1207 97.989 32.027 98.349 32.027C98.6239 32.027 98.8529 32.0739 99.0362 32.1676C99.2216 32.2592 99.3707 32.3743 99.4836 32.5128C99.5987 32.6491 99.686 32.7834 99.7457 32.9155H99.7873V30.4545H101.146V37H99.8032V36.2138H99.7457C99.6818 36.3501 99.5912 36.4854 99.474 36.6197C99.359 36.7518 99.2088 36.8615 99.0234 36.9489C98.8402 37.0362 98.6164 37.0799 98.3522 37.0799ZM98.7837 35.9964C99.0032 35.9964 99.1885 35.9368 99.3398 35.8175C99.4932 35.696 99.6104 35.5266 99.6914 35.3093C99.7745 35.092 99.816 34.8374 99.816 34.5455C99.816 34.2535 99.7755 34 99.6946 33.7848C99.6136 33.5696 99.4964 33.4034 99.343 33.2862C99.1896 33.169 99.0032 33.1104 98.7837 33.1104C98.56 33.1104 98.3714 33.1712 98.218 33.2926C98.0646 33.4141 97.9485 33.5824 97.8696 33.7976C97.7908 34.0128 97.7514 34.2621 97.7514 34.5455C97.7514 34.831 97.7908 35.0834 97.8696 35.3029C97.9506 35.5202 98.0667 35.6907 98.218 35.8143C98.3714 35.9357 98.56 35.9964 98.7837 35.9964ZM146.869 22.5675L148.115 22.4908C148.055 22.0391 147.847 21.6822 147.489 21.4201C147.133 21.158 146.645 21.027 146.025 21.027C145.605 21.027 145.239 21.0888 144.925 21.2124C144.614 21.3359 144.373 21.5117 144.2 21.7397C144.029 21.9677 143.944 22.2393 143.944 22.5547C143.944 22.9212 144.06 23.2227 144.293 23.4592C144.527 23.6957 144.884 23.8619 145.363 23.9577L146.213 24.1271C146.426 24.1697 146.584 24.2315 146.686 24.3125C146.789 24.3913 146.841 24.4925 146.843 24.6161C146.841 24.7631 146.766 24.8835 146.619 24.9773C146.474 25.0689 146.283 25.1147 146.044 25.1147C145.801 25.1147 145.602 25.0636 145.446 24.9613C145.291 24.8569 145.193 24.7056 145.152 24.5075L143.813 24.5778C143.879 25.0465 144.104 25.4173 144.488 25.69C144.873 25.9606 145.391 26.0959 146.041 26.0959C146.467 26.0959 146.843 26.0288 147.169 25.8945C147.497 25.7582 147.755 25.5685 147.942 25.3256C148.132 25.0827 148.227 24.8004 148.227 24.4787C148.227 24.125 148.11 23.8395 147.875 23.6222C147.641 23.4048 147.285 23.2472 146.808 23.1491L145.919 22.9702C145.691 22.9212 145.531 22.8562 145.437 22.7752C145.343 22.6942 145.296 22.5952 145.296 22.478C145.296 22.331 145.369 22.2138 145.514 22.1264C145.658 22.0369 145.836 21.9922 146.047 21.9922C146.205 21.9922 146.34 22.0188 146.453 22.0721C146.568 22.1232 146.661 22.1925 146.731 22.2798C146.801 22.3651 146.847 22.4609 146.869 22.5675ZM140.889 26.0959C140.384 26.0959 139.949 25.9936 139.585 25.7891C139.223 25.5824 138.944 25.2905 138.748 24.9134C138.551 24.5341 138.453 24.0856 138.453 23.5678C138.453 23.0629 138.551 22.6197 138.748 22.2383C138.944 21.8569 139.219 21.5597 139.575 21.3466C139.933 21.1335 140.353 21.027 140.835 21.027C141.158 21.027 141.46 21.0792 141.739 21.1836C142.02 21.2859 142.265 21.4403 142.474 21.647C142.685 21.8537 142.849 22.1136 142.966 22.4268C143.083 22.7379 143.142 23.1023 143.142 23.5199V23.8938H139.799V23.897C139.799 24.1399 139.844 24.3498 139.933 24.5266C140.025 24.7035 140.154 24.8398 140.32 24.9357C140.486 25.0316 140.683 25.0795 140.911 25.0795C141.062 25.0795 141.201 25.0582 141.327 25.0156C141.452 24.973 141.56 24.9091 141.649 24.8239C141.739 24.7386 141.807 24.6342 141.854 24.5107L143.113 24.5938C143.049 24.8963 142.918 25.1605 142.72 25.3864C142.524 25.6101 142.271 25.7848 141.96 25.9105C141.651 26.0341 141.294 26.0959 140.889 26.0959ZM139.936 22.5675C139.854 22.7129 139.808 22.8738 139.8 23.0501H141.86C141.86 22.8541 141.818 22.6804 141.733 22.5291C141.647 22.3778 141.529 22.2596 141.378 22.1744C141.229 22.087 141.055 22.0433 140.857 22.0433C140.65 22.0433 140.467 22.0913 140.307 22.1871C140.149 22.2809 140.026 22.4077 139.936 22.5675ZM135.198 21.0909V26H136.559V23.2227C136.559 23.0224 136.604 22.8455 136.693 22.6921C136.785 22.5387 136.908 22.4194 137.064 22.3342C137.222 22.2468 137.401 22.2031 137.601 22.2031C137.695 22.2031 137.798 22.2106 137.911 22.2255C138.024 22.2404 138.112 22.2575 138.176 22.2766V21.0685C138.117 21.0536 138.047 21.0419 137.968 21.0334C137.89 21.0249 137.816 21.0206 137.748 21.0206C137.473 21.0206 137.23 21.0994 137.019 21.2571C136.808 21.4126 136.658 21.6428 136.569 21.9474H136.518V21.0909H135.198ZM132.056 26.0959C131.551 26.0959 131.116 25.9936 130.752 25.7891C130.39 25.5824 130.111 25.2905 129.915 24.9134C129.718 24.5341 129.62 24.0856 129.62 23.5678C129.62 23.0629 129.718 22.6197 129.915 22.2383C130.111 21.8569 130.386 21.5597 130.742 21.3466C131.1 21.1335 131.52 21.027 132.001 21.027C132.325 21.027 132.627 21.0792 132.906 21.1836C133.187 21.2859 133.432 21.4403 133.641 21.647C133.852 21.8537 134.016 22.1136 134.133 22.4268C134.25 22.7379 134.309 23.1023 134.309 23.5199V23.8938H130.966V23.897C130.966 24.1399 131.011 24.3498 131.1 24.5266C131.192 24.7035 131.321 24.8398 131.487 24.9357C131.653 25.0316 131.85 25.0795 132.078 25.0795C132.229 25.0795 132.368 25.0582 132.494 25.0156C132.619 24.973 132.727 24.9091 132.816 24.8239C132.906 24.7386 132.974 24.6342 133.021 24.5107L134.28 24.5938C134.216 24.8963 134.085 25.1605 133.887 25.3864C133.691 25.6101 133.438 25.7848 133.126 25.9105C132.818 26.0341 132.461 26.0959 132.056 26.0959ZM131.103 22.5675C131.021 22.7129 130.975 22.8738 130.967 23.0501H133.027C133.027 22.8541 132.985 22.6804 132.9 22.5291C132.814 22.3778 132.696 22.2596 132.545 22.1744C132.396 22.087 132.222 22.0433 132.024 22.0433C131.817 22.0433 131.634 22.0913 131.474 22.1871C131.316 22.2809 131.193 22.4077 131.103 22.5675ZM125.582 26V23.1619C125.584 22.951 125.623 22.771 125.7 22.6218C125.779 22.4705 125.887 22.3555 126.026 22.2766C126.166 22.1978 126.328 22.1584 126.512 22.1584C126.784 22.1584 126.998 22.2436 127.154 22.4141C127.309 22.5824 127.386 22.8168 127.384 23.1172V26H128.746V22.8743C128.746 22.4929 128.675 22.1648 128.535 21.8899C128.394 21.6129 128.197 21.3999 127.943 21.2507C127.69 21.1016 127.393 21.027 127.052 21.027C126.687 21.027 126.377 21.1112 126.122 21.2795C125.866 21.4457 125.684 21.6715 125.575 21.957H125.518V21.0909H124.22V26H125.582ZM121.768 26V21.0909H123.129V26H121.768ZM122.452 20.4581C122.249 20.4581 122.076 20.391 121.931 20.2567C121.788 20.1204 121.717 19.9574 121.717 19.7678C121.717 19.5803 121.788 19.4194 121.931 19.2852C122.076 19.1488 122.249 19.0806 122.452 19.0806C122.654 19.0806 122.827 19.1488 122.97 19.2852C123.114 19.4194 123.187 19.5803 123.187 19.7678C123.187 19.9574 123.114 20.1204 122.97 20.2567C122.827 20.391 122.654 20.4581 122.452 20.4581ZM117.322 25.7891C117.687 25.9936 118.121 26.0959 118.626 26.0959C119.031 26.0959 119.388 26.0341 119.697 25.9105C120.008 25.7848 120.261 25.6101 120.457 25.3864C120.656 25.1605 120.787 24.8963 120.851 24.5937L119.591 24.5107C119.544 24.6342 119.476 24.7386 119.387 24.8239C119.297 24.9091 119.19 24.973 119.064 25.0156C118.938 25.0582 118.8 25.0795 118.649 25.0795C118.421 25.0795 118.223 25.0316 118.057 24.9357C117.891 24.8398 117.762 24.7035 117.671 24.5266C117.581 24.3498 117.536 24.1399 117.536 23.897V23.8938H120.879V23.5199C120.879 23.1023 120.821 22.7379 120.704 22.4268C120.586 22.1136 120.422 21.8537 120.211 21.647C120.003 21.4403 119.758 21.2859 119.476 21.1836C119.197 21.0792 118.896 21.027 118.572 21.027C118.09 21.027 117.671 21.1335 117.313 21.3466C116.957 21.5597 116.681 21.8569 116.485 22.2383C116.289 22.6197 116.191 23.0629 116.191 23.5678C116.191 24.0856 116.289 24.5341 116.485 24.9134C116.681 25.2905 116.96 25.5824 117.322 25.7891ZM119.598 23.0501H117.538C117.546 22.8738 117.591 22.7129 117.674 22.5675C117.763 22.4077 117.887 22.2809 118.044 22.1871C118.204 22.0913 118.388 22.0433 118.594 22.0433C118.792 22.0433 118.966 22.087 119.115 22.1744C119.266 22.2596 119.385 22.3778 119.47 22.5291C119.555 22.6804 119.598 22.854 119.598 23.0501ZM118.54 19.723L119.182 20.5028H120.342V20.4581L119.045 19.0518H118.032L116.737 20.4581V20.5028H117.897L118.54 19.723ZM115.555 21.0909V22.1136H114.631V24.4915C114.631 24.6172 114.65 24.7152 114.689 24.7855C114.727 24.8537 114.78 24.9016 114.848 24.9293C114.919 24.957 115 24.9709 115.091 24.9709C115.155 24.9709 115.219 24.9656 115.283 24.9549L115.374 24.937L115.43 24.9261L115.644 25.9393C115.576 25.9606 115.48 25.9851 115.357 26.0128C115.233 26.0426 115.083 26.0607 114.906 26.0671C114.578 26.0799 114.29 26.0362 114.043 25.9361C113.798 25.8359 113.607 25.6804 113.471 25.4695C113.335 25.2585 113.268 24.9922 113.27 24.6705V22.1136H112.598V21.0909H113.27V19.9148H114.631V21.0909H115.555ZM108.707 26V23.1619C108.709 22.951 108.748 22.771 108.825 22.6218C108.904 22.4705 109.012 22.3555 109.151 22.2766C109.291 22.1978 109.453 22.1584 109.637 22.1584C109.909 22.1584 110.123 22.2436 110.279 22.4141C110.435 22.5824 110.511 22.8168 110.509 23.1172V26H111.871V22.8743C111.871 22.4929 111.8 22.1648 111.66 21.8899C111.519 21.6129 111.322 21.3999 111.068 21.2507C110.815 21.1016 110.518 21.027 110.177 21.027C109.812 21.027 109.502 21.1112 109.247 21.2795C108.991 21.4457 108.809 21.6715 108.7 21.957H108.643V21.0909H107.345V26H108.707ZM104.044 26.0959C103.547 26.0959 103.118 25.9904 102.756 25.7795C102.395 25.5664 102.117 25.2702 101.921 24.891C101.725 24.5096 101.627 24.0675 101.627 23.5646C101.627 23.0575 101.725 22.6143 101.921 22.2351C102.117 21.8537 102.395 21.5575 102.756 21.3466C103.118 21.1335 103.547 21.027 104.044 21.027C104.54 21.027 104.968 21.1335 105.328 21.3466C105.691 21.5575 105.97 21.8537 106.166 22.2351C106.362 22.6143 106.46 23.0575 106.46 23.5646C106.46 24.0675 106.362 24.5096 106.166 24.891C105.97 25.2702 105.691 25.5664 105.328 25.7795C104.968 25.9904 104.54 26.0959 104.044 26.0959ZM104.05 25.0412C104.276 25.0412 104.464 24.9773 104.616 24.8494C104.767 24.7195 104.881 24.5426 104.958 24.3189C105.036 24.0952 105.076 23.8406 105.076 23.555C105.076 23.2695 105.036 23.0149 104.958 22.7912C104.881 22.5675 104.767 22.3906 104.616 22.2607C104.464 22.1307 104.276 22.0657 104.05 22.0657C103.822 22.0657 103.63 22.1307 103.475 22.2607C103.321 22.3906 103.205 22.5675 103.126 22.7912C103.05 23.0149 103.011 23.2695 103.011 23.555C103.011 23.8406 103.05 24.0952 103.126 24.3189C103.205 24.5426 103.321 24.7195 103.475 24.8494C103.63 24.9773 103.822 25.0412 104.05 25.0412ZM97.4637 25.7763C97.826 25.9893 98.2585 26.0959 98.7613 26.0959C99.1981 26.0959 99.5763 26.016 99.8959 25.8562C100.216 25.6964 100.466 25.4748 100.647 25.1914C100.83 24.9059 100.932 24.5756 100.954 24.2006H99.669C99.6434 24.3732 99.5891 24.5213 99.506 24.6449C99.425 24.7663 99.3217 24.859 99.196 24.9229C99.0724 24.9869 98.9328 25.0188 98.7773 25.0188C98.5664 25.0188 98.3821 24.9613 98.2244 24.8462C98.0667 24.7312 97.9442 24.5639 97.8568 24.3445C97.7716 24.125 97.729 23.8587 97.729 23.5455C97.729 23.2365 97.7727 22.9734 97.86 22.756C97.9474 22.5387 98.0689 22.3736 98.2244 22.2607C98.3821 22.1456 98.5664 22.0881 98.7773 22.0881C99.0266 22.0881 99.2279 22.1637 99.3814 22.315C99.5369 22.4641 99.6328 22.6612 99.669 22.9063H100.954C100.935 22.527 100.831 22.1967 100.644 21.9155C100.456 21.6342 100.202 21.4158 99.8799 21.2603C99.5582 21.1048 99.1832 21.027 98.7549 21.027C98.2585 21.027 97.8302 21.1346 97.4701 21.3498C97.11 21.5629 96.832 21.8601 96.636 22.2415C96.4421 22.6207 96.3451 23.0618 96.3451 23.5646C96.3451 24.0611 96.441 24.5 96.6328 24.8814C96.8267 25.2628 97.1037 25.5611 97.4637 25.7763ZM143.025 15.0959C142.52 15.0959 142.085 14.9936 141.721 14.7891C141.358 14.5824 141.079 14.2905 140.883 13.9134C140.687 13.5341 140.589 13.0856 140.589 12.5678C140.589 12.0629 140.687 11.6197 140.883 11.2383C141.079 10.8569 141.355 10.5597 141.711 10.3466C142.069 10.1335 142.489 10.027 142.97 10.027C143.294 10.027 143.596 10.0792 143.875 10.1836C144.156 10.2859 144.401 10.4403 144.61 10.647C144.821 10.8537 144.985 11.1136 145.102 11.4268C145.219 11.7379 145.278 12.1023 145.278 12.5199V12.8938H141.935V12.897C141.935 13.1399 141.979 13.3498 142.069 13.5266C142.161 13.7035 142.289 13.8398 142.456 13.9357C142.622 14.0316 142.819 14.0795 143.047 14.0795C143.198 14.0795 143.337 14.0582 143.462 14.0156C143.588 13.973 143.696 13.9091 143.785 13.8239C143.875 13.7386 143.943 13.6342 143.99 13.5107L145.249 13.5938C145.185 13.8963 145.054 14.1605 144.856 14.3864C144.66 14.6101 144.406 14.7848 144.095 14.9105C143.786 15.0341 143.429 15.0959 143.025 15.0959ZM142.072 11.5675C141.99 11.7129 141.944 11.8738 141.936 12.0501H143.996C143.996 11.8541 143.954 11.6804 143.868 11.5291C143.783 11.3778 143.665 11.2596 143.514 11.1744C143.364 11.087 143.191 11.0433 142.993 11.0433C142.786 11.0433 142.603 11.0913 142.443 11.1871C142.285 11.2809 142.162 11.4077 142.072 11.5675ZM135.862 14.7923C136.164 14.984 136.502 15.0799 136.875 15.0799C137.139 15.0799 137.363 15.0362 137.546 14.9489C137.731 14.8615 137.881 14.7518 137.996 14.6197C138.114 14.4854 138.204 14.3501 138.268 14.2138H138.326V15H139.668V8.45454H138.31V10.9155H138.268C138.208 10.7834 138.121 10.6491 138.006 10.5128C137.893 10.3743 137.744 10.2592 137.559 10.1676C137.375 10.0739 137.146 10.027 136.871 10.027C136.511 10.027 136.18 10.1207 135.877 10.3082C135.577 10.4936 135.336 10.7738 135.155 11.1488C134.974 11.5217 134.884 11.9893 134.884 12.5518C134.884 13.0994 134.971 13.5618 135.146 13.9389C135.322 14.3139 135.561 14.5984 135.862 14.7923ZM137.862 13.8175C137.711 13.9368 137.526 13.9964 137.306 13.9964C137.082 13.9964 136.894 13.9357 136.74 13.8143C136.589 13.6907 136.473 13.5202 136.392 13.3029C136.313 13.0834 136.274 12.831 136.274 12.5455C136.274 12.2621 136.313 12.0128 136.392 11.7976C136.471 11.5824 136.587 11.4141 136.74 11.2926C136.894 11.1712 137.082 11.1104 137.306 11.1104C137.526 11.1104 137.712 11.169 137.865 11.2862C138.019 11.4034 138.136 11.5696 138.217 11.7848C138.298 12 138.338 12.2535 138.338 12.5455C138.338 12.8374 138.297 13.092 138.214 13.3093C138.133 13.5266 138.016 13.696 137.862 13.8175ZM131.892 8.45454V15H130.531V8.45454H131.892ZM125.872 14.9297C126.117 15.0384 126.397 15.0927 126.71 15.0927C126.953 15.0927 127.167 15.0607 127.352 14.9968C127.537 14.9308 127.696 14.8402 127.828 14.7251C127.96 14.608 128.066 14.4727 128.145 14.3192H128.183V15H129.474V11.6889C129.474 11.397 129.418 11.1467 129.305 10.9379C129.192 10.7269 129.037 10.5543 128.841 10.4201C128.648 10.2859 128.425 10.1868 128.174 10.1229C127.924 10.059 127.663 10.027 127.39 10.027C126.998 10.027 126.653 10.0866 126.355 10.206C126.059 10.3232 125.817 10.4915 125.629 10.7109C125.442 10.9283 125.316 11.1861 125.252 11.4844L126.512 11.5866C126.558 11.4247 126.654 11.2905 126.799 11.184C126.944 11.0753 127.139 11.021 127.384 11.021C127.616 11.021 127.795 11.0764 127.921 11.1871C128.049 11.2979 128.113 11.4545 128.113 11.657V11.6761C128.113 11.7805 128.073 11.8594 127.995 11.9126C127.916 11.9659 127.789 12.0064 127.614 12.0341C127.439 12.0597 127.209 12.0874 126.924 12.1172C126.681 12.1406 126.449 12.1811 126.227 12.2386C126.008 12.2962 125.812 12.3814 125.639 12.4943C125.466 12.6072 125.33 12.7564 125.23 12.9418C125.13 13.1271 125.08 13.3562 125.08 13.6289C125.08 13.9528 125.15 14.2234 125.291 14.4407C125.433 14.6559 125.627 14.8189 125.872 14.9297ZM127.63 14.0348C127.477 14.1136 127.3 14.1531 127.1 14.1531C126.891 14.1531 126.718 14.1051 126.582 14.0092C126.448 13.9112 126.381 13.7695 126.381 13.5842C126.381 13.4563 126.414 13.3498 126.48 13.2646C126.546 13.1772 126.638 13.108 126.758 13.0568C126.877 13.0057 127.017 12.9684 127.176 12.945C127.251 12.9343 127.334 12.9226 127.426 12.9098C127.517 12.8949 127.609 12.8789 127.7 12.8619C127.792 12.8427 127.874 12.8224 127.947 12.8011C128.021 12.7777 128.08 12.7521 128.122 12.7244V13.2454C128.122 13.418 128.079 13.5724 127.991 13.7088C127.904 13.8452 127.784 13.9538 127.63 14.0348ZM121.073 12.1619V15H119.711V10.0909H121.009V10.957H121.066C121.175 10.6715 121.357 10.4457 121.613 10.2795C121.869 10.1112 122.179 10.027 122.543 10.027C122.884 10.027 123.181 10.1016 123.435 10.2507C123.688 10.3999 123.885 10.6129 124.026 10.8899C124.166 11.1648 124.237 11.4929 124.237 11.8743V15H122.875V12.1172C122.877 11.8168 122.801 11.5824 122.645 11.4141C122.49 11.2436 122.275 11.1584 122.003 11.1584C121.82 11.1584 121.658 11.1978 121.517 11.2766C121.378 11.3555 121.27 11.4705 121.191 11.6218C121.114 11.771 121.075 11.951 121.073 12.1619ZM117.259 10.0909V15H118.621V10.0909H117.259ZM117.422 9.25675C117.567 9.39098 117.741 9.4581 117.943 9.4581C118.145 9.4581 118.318 9.39098 118.461 9.25675C118.606 9.12038 118.678 8.95739 118.678 8.76776C118.678 8.58026 118.606 8.41939 118.461 8.28516C118.318 8.14879 118.145 8.08061 117.943 8.08061C117.741 8.08061 117.567 8.14879 117.422 8.28516C117.279 8.41939 117.208 8.58026 117.208 8.76776C117.208 8.95739 117.279 9.12038 117.422 9.25675ZM109.05 15V10.0909H110.348V10.957H110.405C110.507 10.6694 110.678 10.4425 110.917 10.2763C111.155 10.1101 111.441 10.027 111.773 10.027C112.11 10.027 112.396 10.1112 112.633 10.2795C112.869 10.4457 113.027 10.6715 113.106 10.957H113.157C113.257 10.6758 113.438 10.451 113.7 10.2827C113.965 10.1122 114.277 10.027 114.637 10.027C115.095 10.027 115.467 10.1729 115.752 10.4648C116.04 10.7546 116.184 11.1658 116.184 11.6985V15H114.825V11.967C114.825 11.6942 114.753 11.4897 114.608 11.3533C114.463 11.217 114.282 11.1488 114.065 11.1488C113.817 11.1488 113.625 11.2276 113.486 11.3853C113.348 11.5408 113.278 11.7465 113.278 12.0021V15H111.958V11.9382C111.958 11.6974 111.889 11.5057 111.751 11.3629C111.614 11.2202 111.434 11.1488 111.211 11.1488C111.059 11.1488 110.923 11.1871 110.802 11.2639C110.682 11.3384 110.587 11.4439 110.517 11.5803C110.447 11.7145 110.412 11.8722 110.412 12.0533V15H109.05ZM105.367 10.0909V15H106.729V12.2227C106.729 12.0224 106.774 11.8455 106.863 11.6921C106.955 11.5387 107.078 11.4194 107.234 11.3342C107.392 11.2468 107.571 11.2031 107.771 11.2031C107.865 11.2031 107.968 11.2106 108.081 11.2255C108.194 11.2404 108.282 11.2575 108.346 11.2766V10.0685C108.287 10.0536 108.217 10.0419 108.138 10.0334C108.06 10.0249 107.986 10.0206 107.918 10.0206C107.643 10.0206 107.4 10.0994 107.189 10.2571C106.978 10.4126 106.828 10.6428 106.739 10.9474H106.687V10.0909H105.367ZM102.226 15.0959C101.721 15.0959 101.286 14.9936 100.922 14.7891C100.56 14.5824 100.281 14.2905 100.084 13.9134C99.8885 13.5341 99.7904 13.0856 99.7904 12.5678C99.7904 12.0629 99.8885 11.6197 100.084 11.2383C100.281 10.8569 100.556 10.5597 100.912 10.3466C101.27 10.1335 101.69 10.027 102.171 10.027C102.495 10.027 102.797 10.0792 103.076 10.1836C103.357 10.2859 103.602 10.4403 103.811 10.647C104.022 10.8537 104.186 11.1136 104.303 11.4268C104.42 11.7379 104.479 12.1023 104.479 12.5199V12.8938H101.136V12.897C101.136 13.1399 101.181 13.3498 101.27 13.5266C101.362 13.7035 101.491 13.8398 101.657 13.9357C101.823 14.0316 102.02 14.0795 102.248 14.0795C102.399 14.0795 102.538 14.0582 102.664 14.0156C102.789 13.973 102.897 13.9091 102.986 13.8239C103.076 13.7386 103.144 13.6342 103.191 13.5107L104.45 13.5938C104.386 13.8963 104.255 14.1605 104.057 14.3864C103.861 14.6101 103.608 14.7848 103.296 14.9105C102.988 15.0341 102.631 15.0959 102.226 15.0959ZM101.137 12.0501H103.197C103.197 11.8541 103.155 11.6804 103.07 11.5291C102.984 11.3778 102.866 11.2596 102.715 11.1744C102.566 11.087 102.392 11.0433 102.194 11.0433C101.987 11.0433 101.804 11.0913 101.644 11.1871C101.486 11.2809 101.363 11.4077 101.273 11.5675C101.191 11.7129 101.145 11.8738 101.137 12.0501ZM99.1544 11.1136V10.0909H98.2307V8.91478H96.8692V10.0909H96.198V11.1136H96.8692V13.6705C96.8671 13.9922 96.9342 14.2585 97.0705 14.4695C97.2069 14.6804 97.3976 14.8359 97.6426 14.9361C97.8898 15.0362 98.1774 15.0799 98.5056 15.0671C98.6824 15.0607 98.8326 15.0426 98.9562 15.0128C99.0798 14.9851 99.1757 14.9606 99.2438 14.9393L99.0297 13.9261C98.9956 13.9325 98.9466 13.9421 98.8827 13.9549C98.8188 13.9656 98.7549 13.9709 98.6909 13.9709C98.5993 13.9709 98.5183 13.957 98.448 13.9293C98.3799 13.9016 98.3266 13.8537 98.2882 13.7855C98.2499 13.7152 98.2307 13.6172 98.2307 13.4915V11.1136H99.1544Z" fill="#352F36"/>
</svg>
