<svg width="48" height="49" viewBox="0 0 48 49" fill="none" xmlns="http://www.w3.org/2000/svg">
<path d="M24.624 25.132C27.472 26.444 29.744 28.412 31.44 31.036C33.136 33.66 33.984 36.54 33.984 39.676C33.92 40.156 33.696 40.572 33.312 40.924C32.928 41.244 32.48 41.404 31.968 41.404C31.488 41.404 31.056 41.244 30.672 40.924C30.288 40.572 30.064 40.156 30 39.676C30 37.5 29.456 35.5 28.368 33.676C27.312 31.82 25.856 30.364 24 29.308C22.176 28.22 20.176 27.676 18 27.676C15.824 27.676 13.808 28.22 11.952 29.308C10.128 30.364 8.672 31.82 7.584 33.676C6.528 35.5 6 37.5 6 39.676C5.936 40.156 5.712 40.572 5.328 40.924C4.944 41.244 4.496 41.404 3.984 41.404C3.504 41.404 3.072 41.244 2.688 40.924C2.304 40.572 2.08 40.156 2.016 39.676C2.016 36.54 2.864 33.66 4.56 31.036C6.256 28.412 8.528 26.444 11.376 25.132C10.288 24.204 9.456 23.1 8.88 21.82C8.304 20.508 8.016 19.132 8.016 17.692C8.016 15.868 8.464 14.204 9.36 12.7C10.256 11.164 11.456 9.948 12.96 9.052C14.496 8.156 16.176 7.708 18 7.708C19.824 7.708 21.488 8.156 22.992 9.052C24.528 9.948 25.744 11.164 26.64 12.7C27.536 14.204 27.984 15.868 27.984 17.692C27.984 19.132 27.696 20.508 27.12 21.82C26.544 23.1 25.712 24.204 24.624 25.132ZM18 23.692C19.088 23.692 20.08 23.42 20.976 22.876C21.904 22.332 22.64 21.612 23.184 20.716C23.728 19.788 24 18.78 24 17.692C24 16.604 23.728 15.612 23.184 14.716C22.64 13.788 21.904 13.052 20.976 12.508C20.08 11.964 19.088 11.692 18 11.692C16.912 11.692 15.904 11.964 14.976 12.508C14.08 13.052 13.36 13.788 12.816 14.716C12.272 15.612 12 16.604 12 17.692C12 18.78 12.272 19.788 12.816 20.716C13.36 21.612 14.08 22.332 14.976 22.876C15.904 23.42 16.912 23.692 18 23.692ZM37.488 24.316V24.364C40.112 26.028 42.176 28.22 43.68 30.94C45.184 33.66 45.936 36.572 45.936 39.676C45.872 40.156 45.648 40.572 45.264 40.924C44.88 41.244 44.432 41.404 43.92 41.404C43.44 41.404 43.008 41.244 42.624 40.924C42.24 40.572 42.016 40.156 41.952 39.676C41.952 36.956 41.232 34.444 39.792 32.14C38.352 29.836 36.4 28.108 33.936 26.956L32.88 26.284C32.592 26.092 32.368 25.852 32.208 25.564C32.08 25.244 32.016 24.908 32.016 24.556C32.016 24.204 32.112 23.884 32.304 23.596C32.496 23.276 32.736 23.036 33.024 22.876C33.952 22.332 34.672 21.596 35.184 20.668C35.728 19.74 36 18.748 36 17.692C36 16.604 35.728 15.612 35.184 14.716C34.64 13.788 33.904 13.052 32.976 12.508C32.08 11.964 31.088 11.692 30 11.692C29.52 11.628 29.104 11.404 28.752 11.02C28.432 10.636 28.272 10.204 28.272 9.724C28.272 9.212 28.432 8.764 28.752 8.38C29.104 7.996 29.52 7.772 30 7.708C31.952 7.708 33.76 8.236 35.424 9.292C37.088 10.348 38.32 11.788 39.12 13.612C39.92 15.404 40.176 17.276 39.888 19.228C39.6 21.148 38.8 22.844 37.488 24.316Z" fill="#443FDE"/>
</svg>
