<svg width="48" height="48" viewBox="0 0 48 48" fill="none" xmlns="http://www.w3.org/2000/svg">
<path d="M32.016 20.216C32.56 20.216 33.024 20.408 33.408 20.792C33.792 21.176 33.984 21.64 33.984 22.184V32.216C33.984 32.76 33.792 33.224 33.408 33.608C33.024 33.992 32.56 34.184 32.016 34.184H21.984C21.44 34.184 20.976 33.992 20.592 33.608C20.208 33.224 20.016 32.76 20.016 32.216V28.184H15.984C15.44 28.184 14.976 27.992 14.592 27.608C14.208 27.224 14.016 26.76 14.016 26.216V16.184C14.016 15.64 14.208 15.176 14.592 14.792C14.976 14.408 15.44 14.216 15.984 14.216H26.016C26.56 14.216 27.024 14.408 27.408 14.792C27.792 15.176 27.984 15.64 27.984 16.184V20.216H32.016ZM20.016 22.184C20.016 21.64 20.208 21.176 20.592 20.792C20.976 20.408 21.44 20.216 21.984 20.216H24V18.2H18V24.2H20.016V22.184ZM30 30.2V24.2H24V30.2H30ZM42 36.776C42.736 37.192 43.28 37.784 43.632 38.552C44.016 39.288 44.128 40.072 43.968 40.904C43.84 41.736 43.472 42.456 42.864 43.064C42.256 43.672 41.536 44.04 40.704 44.168C39.872 44.328 39.072 44.216 38.304 43.832C37.568 43.48 36.992 42.936 36.576 42.2H11.424C11.008 42.936 10.416 43.48 9.648 43.832C8.912 44.216 8.128 44.328 7.296 44.168C6.464 44.04 5.744 43.672 5.136 43.064C4.528 42.456 4.144 41.736 3.984 40.904C3.856 40.072 3.968 39.288 4.32 38.552C4.704 37.784 5.264 37.192 6 36.776V11.624C5.264 11.208 4.704 10.632 4.32 9.896C3.968 9.128 3.856 8.328 3.984 7.496C4.144 6.664 4.528 5.944 5.136 5.336C5.744 4.728 6.464 4.36 7.296 4.232C8.128 4.072 8.912 4.184 9.648 4.568C10.416 4.92 11.008 5.464 11.424 6.2H36.576C36.992 5.464 37.568 4.92 38.304 4.568C39.072 4.184 39.872 4.072 40.704 4.232C41.536 4.36 42.256 4.728 42.864 5.336C43.472 5.944 43.84 6.664 43.968 7.496C44.128 8.328 44.016 9.128 43.632 9.896C43.28 10.632 42.736 11.208 42 11.624V36.776ZM38.016 36.776V11.624C37.408 11.272 36.928 10.792 36.576 10.184H11.424C11.072 10.792 10.592 11.272 9.984 11.624V36.776C10.592 37.128 11.072 37.608 11.424 38.216H36.576C36.928 37.608 37.408 37.128 38.016 36.776Z" fill="#443FDE"/>
</svg>
